# Blender v2.83.0 OBJ File: 'Superhero_Female_AExport.blend'
# www.blender.org
o Superhero_Female_A_Foot03
v -0.023342 -0.006208 0.240684
v -0.131530 -0.011292 0.167929
v -0.189085 -0.012334 0.046307
v -0.184103 -0.009384 -0.086791
v -0.114228 -0.002985 -0.196666
v 0.018254 0.005878 -0.239813
v 0.143534 0.012228 -0.178697
v 0.097310 0.001749 0.206235
v 0.200081 0.013140 -0.052299
v 0.183108 0.009210 0.093111
v -0.165816 -0.399041 0.163488
v -0.029867 -0.393912 0.254584
v 0.115041 -0.440482 0.207729
v -0.212912 -0.336935 0.048592
v -0.190782 -0.326305 -0.076243
v -0.128992 -0.366336 -0.181469
v 0.003336 -0.390195 -0.253587
v 0.134858 -0.419120 -0.217303
v 0.203507 -0.346979 -0.082337
v 0.196390 -0.360400 0.077109
v -0.155540 -0.589712 0.197920
v -0.031833 -0.580659 0.268705
v 0.092606 -0.627232 0.230955
v -0.252464 -0.461767 -0.005261
v -0.237368 -0.532253 0.021058
v -0.214996 -0.627799 0.050021
v -0.228390 -0.454579 -0.085678
v -0.194372 -0.521222 -0.124110
v 0.006887 -0.620525 -0.290854
v -0.106708 -0.619153 -0.240292
v 0.126541 -0.639662 -0.263067
v 0.186041 -0.531758 -0.179959
v 0.191284 -0.651337 -0.188431
v 0.214633 -0.487696 -0.093479
v 0.244968 -0.631815 -0.089682
v 0.174121 -0.663740 0.130962
v 0.169371 -0.564438 0.126973
v 0.208604 -0.501813 0.042213
v 0.234260 -0.637899 0.039163
v -0.171782 -0.851156 0.316726
v -0.029763 -0.810564 0.395253
v -0.226962 -0.780476 0.067028
v -0.162101 -1.013895 0.575569
v -0.015669 -0.980210 0.597195
v -0.226881 -1.004655 0.051981
v -0.218989 -1.032182 0.280775
v -0.244541 -1.129279 0.527614
v 0.116368 -0.894441 0.333866
v 0.130523 -1.028010 0.572844
v 0.207238 -0.795021 0.089471
v 0.197750 -1.049821 0.301699
v 0.223347 -1.007689 0.072231
v 0.231453 -1.149859 0.525553
v 0.221651 -0.796110 -0.117795
v 0.247227 -0.729264 -0.061882
v 0.238511 -0.728889 0.024414
v 0.224591 -1.004472 -0.136057
v 0.149551 -0.793301 -0.271100
v 0.163734 -0.984031 -0.313619
v 0.017795 -0.779546 -0.340928
v 0.036087 -0.970512 -0.386054
v -0.120143 -0.779040 -0.292752
v -0.119537 -0.975839 -0.334314
v -0.177488 -0.643236 -0.141924
v -0.203451 -0.784399 -0.152055
v -0.203717 -0.993781 -0.166375
v 0.025357 -1.383445 -0.168508
v 0.190776 -1.338787 -0.149668
v 0.172198 -1.333522 0.033320
v 0.014588 -1.378035 0.020452
v 0.036200 -1.323773 -0.315005
v 0.137609 -1.303881 -0.282472
v 0.208129 -1.212062 0.051455
v 0.232593 -1.204333 -0.149231
v 0.172564 -1.363008 0.501878
v -0.007601 -1.357760 0.492070
v 0.002530 -1.332353 0.243971
v 0.148301 -1.326195 0.260002
v -0.151916 -1.339299 -0.177378
v -0.080825 -1.305297 -0.295881
v -0.198467 -1.205475 -0.182284
v -0.196082 -1.205826 0.032433
v -0.149722 -1.330033 0.016081
v -0.145828 -1.283969 0.238744
v 0.041587 -1.179679 -0.385120
v -0.106725 -1.178888 -0.337943
v 0.193363 -1.247027 0.274927
v 0.227682 -1.296728 0.511820
v 0.166666 -1.176361 -0.321353
v -0.199136 -1.177548 0.252129
v -0.179944 -1.310900 0.518839
v -0.235054 -1.232106 0.521683
v -0.228676 -1.353126 0.916762
v -0.154632 -1.376400 0.906090
v -0.148111 -1.379518 1.107994
v -0.216968 -1.369212 1.147229
v -0.276935 -1.263913 0.767379
v -0.281558 -1.181813 0.766748
v -0.196332 -1.082206 0.788490
v -0.269896 -1.226946 0.938614
v -0.191963 -1.161998 0.940242
v -0.072824 -1.363861 0.899829
v -0.074148 -1.362417 0.880439
v -0.023671 -1.370793 0.685710
v 0.111698 -1.377195 0.839098
v -0.233983 -1.332701 0.753327
v 0.152321 -1.151815 0.858035
v 0.018915 -1.148292 0.853577
v 0.038103 -1.205983 1.045116
v 0.165747 -1.221697 1.032277
v 0.266702 -1.201982 0.678572
v 0.153031 -1.093232 0.721561
v 0.288576 -1.236689 0.831036
v 0.271895 -1.300550 0.673883
v 0.299010 -1.312678 0.833667
v -0.105525 -1.368911 1.071467
v 0.071156 -1.389934 1.075075
v -0.029635 -1.053663 0.751955
v -0.123083 -1.184613 0.907733
v 0.246759 -1.263716 0.952420
v -0.077844 -1.161363 0.926439
v -0.071808 -1.165179 0.938693
v -0.194934 -1.206467 1.108236
v -0.249408 -1.253034 1.055888
v -0.232321 -1.238461 1.223256
v -0.268907 -1.281173 1.136885
v 0.179838 -1.257653 1.146997
v 0.281303 -1.300478 0.996579
v -0.076740 -1.226440 1.163713
v -0.080992 -1.325139 1.169835
v 0.025295 -1.320871 1.201593
v 0.037877 -1.246598 1.194751
v 0.221201 -1.360351 1.029134
v 0.151148 -1.327618 1.158641
v -0.124243 -1.308250 1.220226
v -0.194619 -1.305267 1.225365
v -0.092637 -1.205118 1.036455
v -0.273481 -1.291094 0.937939
v -0.081767 -1.233744 1.178379
v -0.083148 -1.218940 1.077399
v -0.144179 -1.197855 1.113175
v -0.130113 -1.236102 1.222675
v 0.251788 -1.375245 0.849547
v 0.223162 -1.362816 0.678009
v -0.075140 -1.311390 1.178453
v -0.082561 -1.367351 1.085296
v -0.080894 -1.361211 0.903745
v -0.087415 -1.170236 0.947283
vt 0.663274 0.694261
vt 0.709908 0.685307
vt 0.712158 0.707747
vt 0.663551 0.709096
vt 0.717404 0.728766
vt 0.662483 0.723361
vt 0.660862 0.679542
vt 0.698757 0.671637
vt 0.656904 0.665176
vt 0.692829 0.657009
vt 0.692514 0.642246
vt 0.652325 0.651339
vt 0.691465 0.800813
vt 0.681919 0.815064
vt 0.645056 0.799187
vt 0.649483 0.784442
vt 0.700447 0.787034
vt 0.653507 0.769675
vt 0.656796 0.754924
vt 0.697252 0.766865
vt 0.659799 0.738986
vt 0.703248 0.747502
vt 0.738303 0.683018
vt 0.741358 0.706103
vt 0.746226 0.728583
vt 0.710631 0.660380
vt 0.719946 0.660820
vt 0.733393 0.659216
vt 0.707243 0.652205
vt 0.712301 0.644320
vt 0.715670 0.811956
vt 0.708527 0.823382
vt 0.723520 0.800232
vt 0.715757 0.784729
vt 0.728872 0.790085
vt 0.714005 0.772468
vt 0.731229 0.776886
vt 0.745213 0.749413
vt 0.731715 0.745471
vt 0.720397 0.755934
vt 0.737257 0.762245
vt 0.784724 0.676280
vt 0.788468 0.704691
vt 0.752663 0.651116
vt 0.834589 0.679939
vt 0.834823 0.704369
vt 0.774632 0.631782
vt 0.799523 0.650580
vt 0.836634 0.657547
vt 0.793899 0.735630
vt 0.837812 0.728675
vt 0.759872 0.763317
vt 0.809079 0.759852
vt 0.783121 0.780276
vt 0.843464 0.751584
vt 0.748414 0.787718
vt 0.743145 0.778010
vt 0.747479 0.768217
vt 0.768843 0.800590
vt 0.740202 0.805717
vt 0.757477 0.816974
vt 0.731988 0.819771
vt 0.749397 0.828606
vt 0.723579 0.832245
vt 0.741346 0.842449
vt 0.723908 0.635777
vt 0.715014 0.625144
vt 0.727885 0.612359
vt 0.738559 0.627301
vt 0.742715 0.596465
vt 0.757027 0.611936
vt 0.802690 0.836799
vt 0.794674 0.822868
vt 0.808478 0.810752
vt 0.818645 0.825535
vt 0.788335 0.844685
vt 0.784472 0.833396
vt 0.800422 0.798756
vt 0.785019 0.813903
vt 0.857008 0.777731
vt 0.865645 0.796387
vt 0.840239 0.810603
vt 0.830961 0.794356
vt 0.812397 0.853104
vt 0.796761 0.854876
vt 0.773773 0.595359
vt 0.790446 0.612592
vt 0.829659 0.840449
vt 0.849893 0.825896
vt 0.766509 0.837382
vt 0.760141 0.851296
vt 0.824898 0.783701
vt 0.852783 0.768239
vt 0.772779 0.826302
vt 0.759367 0.581886
vt 0.808472 0.632668
vt 0.877955 0.812434
vt 0.841441 0.644674
vt 0.780579 0.844225
vt 0.774089 0.855301
vt 0.784691 0.584596
vt 0.799354 0.600191
vt 0.815284 0.619798
vt 0.844816 0.633636
vt 0.772536 0.574659
vt 0.918445 0.794940
vt 0.913321 0.788058
vt 0.931869 0.776977
vt 0.939357 0.781222
vt 0.871359 0.650515
vt 0.868963 0.660275
vt 0.868111 0.677842
vt 0.891076 0.658230
vt 0.892953 0.672952
vt 0.908126 0.780471
vt 0.906515 0.781744
vt 0.885426 0.787849
vt 0.892391 0.768117
vt 0.903200 0.804630
vt 0.878921 0.727690
vt 0.880237 0.709447
vt 0.904928 0.722370
vt 0.898553 0.734336
vt 0.863736 0.747898
vt 0.860743 0.728064
vt 0.879512 0.745181
vt 0.868825 0.757648
vt 0.882698 0.751025
vt 0.924766 0.771090
vt 0.912654 0.757573
vt 0.861881 0.702360
vt 0.894125 0.686055
vt 0.890825 0.742309
vt 0.899894 0.694029
vt 0.901210 0.696572
vt 0.912486 0.661647
vt 0.905329 0.655317
vt 0.919149 0.655193
vt 0.913192 0.651395
vt 0.907772 0.739334
vt 0.894859 0.745882
vt 0.920164 0.722713
vt 0.928271 0.724719
vt 0.923299 0.734674
vt 0.916861 0.731288
vt 0.900708 0.750473
vt 0.913217 0.744175
vt 0.926330 0.750485
vt 0.942479 0.767022
vt 0.947248 0.773107
vt 0.914653 0.711046
vt 0.891675 0.650438
vt 0.924149 0.664309
vt 0.919619 0.673080
vt 0.915971 0.665655
vt 0.923281 0.659751
vt 0.886954 0.756579
vt 0.890234 0.641341
vt 0.916752 0.641400
vt 0.924907 0.650570
vt 0.871409 0.640915
vt 0.872778 0.764955
vt 0.931033 0.664871
vt 0.929955 0.657783
vt 0.934715 0.674369
vt 0.933123 0.691352
vt 0.902232 0.689474
vt 0.909078 0.781088
vt 0.926418 0.771755
vt 0.931848 0.761265
vt 0.935831 0.764452
vt 0.933805 0.693868
vt 0.933545 0.695993
vt 0.933287 0.714500
vn -0.7496 0.0572 0.6594
vn -0.7660 0.0543 0.6406
vn -0.1333 0.0616 0.9892
vn -0.1273 0.0335 0.9913
vn 0.6260 0.0318 0.7792
vn 0.5954 0.0227 0.8031
vn -0.9845 0.0611 0.1645
vn -0.9745 0.1190 0.1903
vn -0.9435 0.0259 -0.3303
vn -0.9209 0.1318 -0.3668
vn -0.6440 0.0805 -0.7608
vn -0.6389 0.0112 -0.7692
vn -0.0585 0.1055 -0.9927
vn 0.0019 0.0349 -0.9994
vn 0.6324 0.1205 -0.7653
vn 0.6928 0.0429 -0.7198
vn 0.9843 0.0256 -0.1746
vn 0.9775 0.0644 -0.2007
vn 0.9407 0.0202 0.3388
vn 0.9443 0.0296 0.3277
vn -0.7773 0.1645 0.6072
vn -0.0807 0.2646 0.9610
vn 0.6537 0.1859 0.7335
vn -0.9996 0.0220 0.0191
vn -0.9885 -0.1141 0.0997
vn -0.9941 0.0315 0.1034
vn -0.9080 0.0553 -0.4153
vn -0.8741 -0.0514 -0.4829
vn -0.0407 0.2234 -0.9739
vn -0.6191 0.1829 -0.7637
vn 0.5751 0.1437 -0.8054
vn 0.8299 0.1259 -0.5435
vn 0.8529 0.0566 -0.5191
vn 0.9655 0.1475 -0.2148
vn 0.9761 0.0824 -0.2009
vn 0.8489 0.0983 0.5193
vn 0.8360 0.0425 0.5470
vn 0.9554 0.0937 0.2799
vn 0.9437 0.0954 0.3168
vn -0.8153 0.3861 0.4315
vn 0.0164 0.6555 0.7550
vn -0.9929 0.1024 0.0612
vn -0.6238 0.7225 0.2982
vn 0.0742 0.8784 0.4722
vn -0.9996 -0.0294 0.0025
vn -0.9960 0.0711 0.0542
vn -0.9795 0.1980 -0.0375
vn 0.7641 0.4549 0.4574
vn 0.6183 0.7258 0.3014
vn 0.9520 0.0556 0.3009
vn 0.9745 0.1905 0.1182
vn 0.9914 0.0475 0.1220
vn 0.9502 0.3104 -0.0294
vn 0.9693 -0.0267 -0.2445
vn 0.9833 -0.1521 -0.1004
vn 0.9614 -0.1345 0.2398
vn 0.9872 0.0397 -0.1547
vn 0.7173 0.1518 -0.6800
vn 0.7477 0.1052 -0.6556
vn 0.0495 0.2478 -0.9676
vn 0.0973 0.1233 -0.9876
vn -0.6356 0.1993 -0.7459
vn -0.6359 0.0646 -0.7691
vn -0.9145 0.0690 -0.3987
vn -0.9442 0.1022 -0.3131
vn -0.9593 -0.0076 -0.2824
vn 0.0185 -0.9853 -0.1695
vn 0.7016 -0.6966 -0.1497
vn 0.6556 -0.7488 0.0974
vn -0.0358 -0.9944 0.0996
vn 0.0619 -0.7126 -0.6989
vn 0.5652 -0.5965 -0.5699
vn 0.9793 -0.1874 0.0760
vn 0.9771 -0.1510 -0.1501
vn 0.4238 -0.8927 -0.1532
vn -0.1291 -0.9865 -0.1003
vn -0.1101 -0.9937 0.0223
vn 0.5425 -0.8391 -0.0395
vn -0.6610 -0.7124 -0.2355
vn -0.4519 -0.6100 -0.6510
vn -0.9403 -0.1993 -0.2759
vn -0.9678 -0.2512 0.0136
vn -0.6624 -0.7444 0.0841
vn -0.6572 -0.7537 -0.0069
vn 0.0884 -0.1968 -0.9765
vn -0.5982 -0.1810 -0.7807
vn 0.9655 -0.2540 -0.0571
vn 0.9244 -0.3162 -0.2133
vn 0.7260 -0.1487 -0.6715
vn -0.9587 -0.2771 -0.0636
vn -0.5854 -0.7925 -0.1708
vn -0.9338 -0.3057 -0.1858
vn -0.5796 -0.8129 -0.0578
vn -0.0655 -0.9965 -0.0517
vn 0.0674 -0.9706 0.2311
vn -0.4602 -0.8141 0.3542
vn -0.9519 -0.2904 -0.0976
vn -0.9473 0.3172 0.0448
vn -0.4222 0.8333 0.3569
vn -0.8903 0.4246 0.1646
vn -0.3030 0.8916 0.3364
vn -0.7001 -0.7140 -0.0014
vn 0.0404 -0.9830 0.1791
vn -0.1029 -0.9925 -0.0659
vn 0.0071 -0.9996 -0.0284
vn -0.5987 -0.7865 -0.1516
vn 0.3750 0.8602 0.3455
vn 0.1676 0.8756 0.4530
vn 0.0828 0.9564 0.2801
vn 0.3657 0.8914 0.2677
vn 0.9164 0.3992 -0.0309
vn 0.4926 0.8133 0.3096
vn 0.8506 0.5105 0.1255
vn 0.9348 -0.2884 -0.2071
vn 0.9771 -0.2128 0.0044
vn -0.7592 -0.6382 0.1281
vn 0.0425 -0.9716 0.2330
vn 0.0785 0.8896 0.4499
vn -0.0653 0.9182 0.3907
vn 0.7049 0.6668 0.2418
vn -0.1861 0.7881 0.5867
vn -0.5616 0.7475 0.3547
vn -0.3343 0.9249 0.1810
vn -0.8267 0.5496 0.1207
vn -0.5763 0.4264 0.6972
vn -0.9777 0.0268 0.2082
vn 0.6021 0.4447 0.6631
vn 0.9472 0.0472 0.3172
vn -0.5550 0.6063 0.5695
vn -0.6323 -0.3845 0.6726
vn 0.0068 -0.4425 0.8967
vn 0.0819 0.5777 0.8121
vn 0.5372 -0.7762 0.3301
vn 0.4499 -0.5003 0.7398
vn 0.3473 -0.4238 0.8366
vn -0.2615 -0.4497 0.8540
vn -0.7334 0.6680 0.1265
vn -0.9726 -0.2309 0.0281
vn 0.7851 0.5056 0.3578
vn 0.7823 0.6141 0.1042
vn 0.1224 0.9681 0.2186
vn 0.2897 0.5494 0.7838
vn 0.4887 -0.8724 -0.0041
vn 0.4488 -0.8820 -0.1434
vn 0.8269 -0.3589 0.4330
vn 0.7429 -0.6583 0.1215
vn 0.7363 -0.6604 0.1475
vn 0.5874 0.7399 0.3277
s 1
f 2/1/1 11/2/2 12/3/3 1/4/4
f 13/5/5 8/6/6 1/4/4 12/3/3
f 11/2/2 2/1/1 3/7/7 14/8/8
f 3/7/7 4/9/9 15/10/10 14/8/8
f 16/11/11 15/10/10 4/9/9 5/12/12
f 17/13/13 16/14/11 5/15/12 6/16/14
f 18/17/15 17/13/13 6/16/14 7/18/16
f 18/17/15 7/18/16 9/19/17 19/20/18
f 10/21/19 20/22/20 19/20/18 9/19/17
f 13/5/5 20/22/20 10/21/19 8/6/6
f 11/2/2 21/23/21 22/24/22 12/3/3
f 23/25/23 13/5/5 12/3/3 22/24/22
f 11/2/2 14/8/8 24/26/24 25/27/25
f 11/2/2 25/27/25 26/28/26 21/23/21
f 14/8/8 15/10/10 27/29/27 24/26/24
f 25/27/25 24/26/24 27/29/27 28/30/28
f 28/30/28 27/29/27 15/10/10 16/11/11
f 29/31/29 30/32/30 16/14/11 17/13/13
f 31/33/31 29/31/29 17/13/13 18/17/15
f 18/17/15 32/34/32 33/35/33 31/33/31
f 18/17/15 19/20/18 34/36/34 32/34/32
f 33/35/33 32/34/32 34/36/34 35/37/35
f 13/5/5 23/25/23 36/38/36 37/39/37
f 20/22/20 13/5/5 37/39/37 38/40/38
f 19/20/18 20/22/20 38/40/38 34/36/34
f 38/40/38 37/39/37 36/38/36 39/41/39
f 34/36/34 38/40/38 39/41/39 35/37/35
f 40/42/40 41/43/41 22/24/22 21/23/21
f 40/42/40 21/23/21 26/28/26 42/44/42
f 40/42/40 43/45/43 44/46/44 41/43/41
f 40/42/40 42/44/42 45/47/45 46/48/46
f 40/42/40 46/48/46 47/49/47 43/45/43
f 23/25/23 22/24/22 41/43/41 48/50/48
f 41/43/41 44/46/44 49/51/49 48/50/48
f 48/50/48 50/52/50 36/38/36 23/25/23
f 48/50/48 51/53/51 52/54/52 50/52/50
f 48/50/48 49/51/49 53/55/53 51/53/51
f 50/52/50 54/56/54 55/57/55 56/58/56
f 50/52/50 56/58/56 39/41/39 36/38/36
f 57/59/57 54/56/54 50/52/50 52/54/52
f 39/41/39 56/58/56 55/57/55 35/37/35
f 54/56/54 33/35/33 35/37/35 55/57/55
f 54/56/54 58/60/58 31/33/31 33/35/33
f 59/61/59 58/60/58 54/56/54 57/59/57
f 58/60/58 60/62/60 29/31/29 31/33/31
f 61/63/61 60/62/60 58/60/58 59/61/59
f 60/62/60 62/64/62 30/32/30 29/31/29
f 61/63/61 63/65/63 62/64/62 60/62/60
f 64/66/64 30/67/30 62/68/62 65/69/65
f 63/70/63 66/71/66 65/69/65 62/68/62
f 42/44/42 26/28/26 64/66/64 65/69/65
f 42/44/42 65/69/65 66/71/66 45/47/45
f 67/72/67 68/73/68 69/74/69 70/75/70
f 71/76/71 72/77/72 68/73/68 67/72/67
f 52/54/52 73/78/73 74/79/74 57/59/57
f 75/80/75 76/81/76 77/82/77 78/83/78
f 71/76/71 67/72/67 79/84/79 80/85/80
f 66/71/66 81/86/81 82/87/82 45/47/45
f 67/72/67 70/75/70 83/88/83 79/84/79
f 84/89/84 83/88/83 70/75/70 77/82/77
f 63/65/63 61/63/61 85/90/85 86/91/86
f 87/92/87 51/53/51 53/55/53 88/93/88
f 57/59/57 74/79/74 89/94/89 59/61/59
f 78/83/78 77/82/77 70/75/70 69/74/69
f 61/63/61 59/61/59 89/94/89 85/90/85
f 66/71/66 63/70/63 86/95/86 81/86/81
f 46/48/46 45/47/45 82/87/82 90/96/90
f 91/97/91 84/89/84 77/82/77 76/81/76
f 90/96/90 92/98/92 47/49/47 46/48/46
f 73/78/73 69/74/69 68/73/68 74/79/74
f 85/90/85 71/99/71 80/100/80 86/91/86
f 78/83/78 87/92/87 88/93/88 75/80/75
f 81/86/81 79/101/79 83/102/83 82/87/82
f 90/96/90 84/103/84 91/104/91 92/98/92
f 74/79/74 68/73/68 72/77/72 89/94/89
f 89/94/89 72/77/72 71/99/71 85/90/85
f 69/74/69 73/78/73 87/92/87 78/83/78
f 86/95/86 80/105/80 79/101/79 81/86/81
f 82/87/82 83/102/83 84/103/84 90/96/90
f 51/53/51 87/92/87 73/78/73 52/54/52
f 28/30/28 64/66/64 26/28/26 25/27/25
f 16/11/11 30/67/30 64/66/64 28/30/28
f 93/106/93 94/107/94 95/108/95 96/109/96
f 97/110/97 98/111/98 47/49/47 92/98/92
f 99/112/99 98/111/98 100/113/100 101/114/101
f 102/115/102 103/116/103 104/117/104 105/118/105
f 106/119/106 91/97/91 76/81/76 104/117/104
f 107/120/107 108/121/108 109/122/109 110/123/110
f 111/124/111 112/125/112 107/120/107 113/126/113
f 114/127/114 111/124/111 113/126/113 115/128/115
f 116/129/116 102/115/102 105/118/105 117/130/117
f 118/131/118 99/112/99 101/114/101 119/132/119
f 110/123/110 120/133/120 113/126/113 107/120/107
f 121/134/121 122/135/122 108/121/108 118/131/118
f 123/136/123 101/114/101 100/113/100 124/137/124
f 125/138/125 123/136/123 124/137/124 126/139/126
f 127/140/127 128/141/128 120/133/120 110/123/110
f 129/142/129 130/143/130 131/144/131 132/145/132
f 133/146/133 134/147/134 131/148/131 117/130/117
f 128/141/128 115/128/115 113/126/113 120/133/120
f 96/109/96 95/108/95 135/149/135 136/150/136
f 129/142/129 132/145/132 109/122/109 137/151/137
f 126/139/126 124/137/124 100/113/100 138/152/138
f 139/153/139 140/154/140 141/155/141 142/156/142
f 143/157/143 115/128/115 128/141/128 133/146/133
f 127/140/127 134/147/134 133/146/133 128/141/128
f 138/152/138 93/158/93 96/159/96 126/139/126
f 136/160/136 125/138/125 126/139/126 96/159/96
f 97/110/97 106/161/106 93/158/93 138/152/138
f 144/162/144 114/127/114 115/128/115 143/157/143
f 145/163/145 139/153/139 142/156/142 135/164/135
f 101/114/101 123/136/123 141/155/141 119/132/119
f 139/153/139 145/163/145 146/165/146 140/154/140
f 146/165/146 147/166/147 148/167/148 140/154/140
f 92/98/92 91/104/91 106/161/106 97/110/97
f 132/145/132 131/144/131 134/147/134 127/140/127
f 109/122/109 132/145/132 127/140/127 110/123/110
f 142/156/142 141/155/141 123/136/123 125/138/125
f 95/108/95 94/107/94 147/168/147 146/169/146
f 119/132/119 141/155/141 140/154/140 148/167/148
f 109/122/109 108/121/108 122/135/122 137/151/137
f 104/117/104 76/81/76 75/80/75 144/162/144
f 117/130/117 105/118/105 143/157/143 133/146/133
f 117/130/117 131/148/131 130/170/130 116/129/116
f 135/149/135 95/108/95 146/169/146 145/171/145
f 94/107/94 104/117/104 103/116/103 147/168/147
f 135/164/135 142/156/142 125/138/125 136/160/136
f 118/131/118 119/132/119 148/167/148 121/134/121
f 118/131/118 108/121/108 107/120/107 112/125/112
f 43/45/43 47/49/47 98/111/98 99/112/99
f 138/152/138 100/113/100 98/111/98 97/110/97
f 75/80/75 88/93/88 114/127/114 144/162/144
f 88/93/88 53/55/53 111/124/111 114/127/114
f 53/55/53 49/51/49 112/125/112 111/124/111
f 44/46/44 118/131/118 112/125/112 49/51/49
f 44/46/44 43/45/43 99/112/99 118/131/118
f 105/118/105 104/117/104 144/162/144 143/157/143
f 93/106/93 106/119/106 104/117/104 94/107/94
f 121/134/121 148/167/148 147/166/147 103/172/103
f 122/135/122 121/134/121 103/172/103 102/173/102
f 102/173/102 116/174/116 137/151/137 122/135/122
f 129/142/129 137/151/137 116/174/116 130/143/130
