# Blender v2.83.0 OBJ File: 'Superhero_Female_AExport.blend'
# www.blender.org
o Superhero_Female_A_Foot02
v -0.023342 -0.006208 0.240684
v -0.131530 -0.011292 0.167929
v -0.189085 -0.012334 0.046307
v -0.184103 -0.009384 -0.086791
v -0.114228 -0.002985 -0.196666
v 0.018254 0.005878 -0.239813
v 0.143534 0.012228 -0.178697
v 0.097310 0.001749 0.206235
v 0.200081 0.013140 -0.052299
v 0.183108 0.009210 0.093111
v -0.165816 -0.399041 0.163488
v -0.029867 -0.393912 0.254584
v 0.115041 -0.440482 0.207729
v -0.212912 -0.336935 0.048592
v -0.190782 -0.326305 -0.076243
v -0.128992 -0.366336 -0.181469
v 0.003336 -0.390195 -0.253587
v 0.134858 -0.419120 -0.217303
v 0.203507 -0.346979 -0.082337
v 0.196390 -0.360400 0.077109
v -0.155540 -0.589712 0.197920
v -0.031833 -0.580659 0.268705
v 0.092606 -0.627232 0.230955
v -0.252464 -0.461767 -0.005261
v -0.237368 -0.532253 0.021058
v -0.214996 -0.627799 0.050021
v -0.228390 -0.454579 -0.085678
v -0.194372 -0.521222 -0.124110
v 0.006887 -0.620525 -0.290854
v -0.106708 -0.619153 -0.240292
v 0.126541 -0.639662 -0.263067
v 0.186041 -0.531758 -0.179959
v 0.191284 -0.651337 -0.188431
v 0.214633 -0.487696 -0.093479
v 0.244968 -0.631815 -0.089682
v 0.174121 -0.663740 0.130962
v 0.169371 -0.564438 0.126973
v 0.208604 -0.501813 0.042213
v 0.234260 -0.637899 0.039163
v -0.171782 -0.851156 0.316726
v -0.029763 -0.810564 0.395253
v -0.226962 -0.780476 0.067028
v -0.164938 -1.024721 0.572309
v -0.013802 -0.994300 0.603213
v -0.226881 -1.004655 0.051981
v -0.218989 -1.032182 0.280775
v -0.255763 -1.137946 0.535322
v 0.116368 -0.894441 0.333866
v 0.125346 -1.039834 0.595441
v 0.207238 -0.795021 0.089471
v 0.197750 -1.049821 0.301699
v 0.223347 -1.007689 0.072231
v 0.222778 -1.158379 0.571751
v 0.221651 -0.796110 -0.117795
v 0.247227 -0.729264 -0.061882
v 0.238511 -0.728889 0.024414
v 0.224591 -1.004472 -0.136057
v 0.149551 -0.793301 -0.271100
v 0.163734 -0.984031 -0.313619
v 0.017795 -0.779546 -0.340928
v 0.036087 -0.970512 -0.386054
v -0.120143 -0.779040 -0.292752
v -0.119537 -0.975839 -0.334314
v -0.177488 -0.643236 -0.141924
v -0.203451 -0.784399 -0.152055
v -0.203717 -0.993781 -0.166375
v 0.025357 -1.383445 -0.168508
v 0.190776 -1.338787 -0.149668
v 0.172198 -1.333522 0.033320
v 0.014588 -1.378035 0.020452
v 0.036200 -1.323773 -0.315005
v 0.137609 -1.303881 -0.282472
v 0.208129 -1.212062 0.051455
v 0.232593 -1.204333 -0.149231
v 0.166559 -1.369500 0.551276
v -0.014127 -1.364108 0.535072
v 0.002530 -1.332353 0.243971
v 0.148301 -1.326195 0.260002
v -0.151916 -1.339299 -0.177378
v -0.080825 -1.305297 -0.295881
v -0.198467 -1.205475 -0.182284
v -0.196082 -1.205826 0.032433
v -0.149722 -1.330033 0.016081
v -0.145828 -1.283969 0.238744
v 0.041587 -1.179679 -0.385120
v -0.106725 -1.178888 -0.337943
v 0.193363 -1.247027 0.274927
v 0.224325 -1.303907 0.562586
v 0.166666 -1.176361 -0.321353
v -0.199136 -1.177548 0.252129
v -0.185810 -1.317871 0.534214
v -0.244211 -1.239851 0.532151
v -0.006409 -1.383231 0.869686
v 0.266393 -1.378541 0.862917
v -0.308446 -1.284861 0.915592
v -0.303835 -1.215068 0.916422
v -0.187793 -1.130109 0.920969
v -0.254696 -1.359772 0.895330
v -0.014145 -1.106223 0.909626
v 0.175207 -1.138198 0.875833
v 0.310169 -1.229037 0.846262
v 0.322815 -1.310943 0.848859
v -0.028466 -1.371730 1.162943
v -0.234197 -1.346459 1.189403
v -0.019240 -1.169797 1.135502
v 0.174163 -1.208179 1.061878
v 0.258009 -1.254647 0.997917
v -0.196774 -1.191338 1.152246
v -0.264192 -1.242834 1.092250
v -0.207731 -1.226718 1.268227
v -0.297683 -1.273572 1.177915
v 0.164670 -1.247943 1.163090
v 0.301061 -1.295301 1.042587
v 0.228409 -1.361513 1.072872
v 0.139108 -1.325315 1.174625
v -0.020394 -1.308490 1.264199
v -0.166860 -1.300426 1.270763
v -0.023479 -1.220833 1.265101
vt 0.666609 0.692759
vt 0.714345 0.683197
vt 0.716823 0.706053
vt 0.667046 0.708017
vt 0.722483 0.727428
vt 0.666117 0.722713
vt 0.664033 0.677618
vt 0.702893 0.669279
vt 0.659893 0.662849
vt 0.696782 0.654300
vt 0.696454 0.639126
vt 0.655125 0.648628
vt 0.697543 0.801957
vt 0.688035 0.816913
vt 0.649602 0.801333
vt 0.653847 0.786002
vt 0.706451 0.787528
vt 0.657678 0.770664
vt 0.660779 0.755364
vt 0.702676 0.766847
vt 0.663599 0.738863
vt 0.708401 0.746850
vt 0.743158 0.680740
vt 0.746406 0.704033
vt 0.751718 0.726663
vt 0.715027 0.657749
vt 0.724536 0.658196
vt 0.738229 0.656592
vt 0.711564 0.649379
vt 0.716764 0.641311
vt 0.722839 0.812804
vt 0.715783 0.824831
vt 0.730584 0.800470
vt 0.722146 0.784738
vt 0.735782 0.789861
vt 0.720014 0.772192
vt 0.737799 0.776244
vt 0.751278 0.747792
vt 0.737434 0.744142
vt 0.726136 0.755098
vt 0.743535 0.761095
vt 0.789603 0.673927
vt 0.793305 0.701991
vt 0.757822 0.648471
vt 0.838260 0.677075
vt 0.840651 0.700505
vt 0.780363 0.629207
vt 0.805017 0.648626
vt 0.842970 0.656397
vt 0.799700 0.732395
vt 0.846081 0.721827
vt 0.766591 0.761485
vt 0.816120 0.755894
vt 0.790929 0.777799
vt 0.855859 0.741753
vt 0.755756 0.786794
vt 0.750036 0.777025
vt 0.754145 0.766877
vt 0.777232 0.799212
vt 0.747954 0.805582
vt 0.766198 0.816543
vt 0.739956 0.820367
vt 0.758292 0.828885
vt 0.731657 0.833565
vt 0.750455 0.843543
vt 0.728697 0.632636
vt 0.719669 0.621656
vt 0.733055 0.608687
vt 0.743759 0.624122
vt 0.748553 0.592690
vt 0.762850 0.608757
vt 0.814002 0.834976
vt 0.804935 0.820954
vt 0.818538 0.807696
vt 0.829921 0.822379
vt 0.799494 0.843953
vt 0.794871 0.832407
vt 0.809579 0.795812
vt 0.794504 0.812177
vt 0.871874 0.767368
vt 0.881690 0.786489
vt 0.851361 0.805494
vt 0.840582 0.789408
vt 0.825009 0.851405
vt 0.808820 0.854109
vt 0.780263 0.592255
vt 0.796803 0.610152
vt 0.842283 0.837251
vt 0.862491 0.820794
vt 0.776380 0.837305
vt 0.770326 0.852011
vt 0.833700 0.778942
vt 0.867115 0.757731
vt 0.782417 0.825556
vt 0.765885 0.578181
vt 0.814556 0.630778
vt 0.892981 0.804029
vt 0.848745 0.644374
vt 0.791279 0.843827
vt 0.784988 0.855606
vt 0.791643 0.581568
vt 0.806156 0.597821
vt 0.821672 0.618151
vt 0.853382 0.633463
vt 0.779496 0.571132
vt 0.913809 0.765606
vt 0.898042 0.744214
vt 0.892353 0.657385
vt 0.888929 0.664060
vt 0.884979 0.678842
vt 0.932386 0.786786
vt 0.883019 0.697396
vt 0.883534 0.717736
vt 0.887635 0.732571
vt 0.892280 0.738034
vt 0.940711 0.748329
vt 0.957622 0.764459
vt 0.906812 0.695850
vt 0.902846 0.715215
vt 0.899772 0.725487
vt 0.908348 0.679868
vt 0.905342 0.670938
vt 0.918441 0.678948
vt 0.913353 0.670193
vt 0.913796 0.713907
vt 0.905130 0.728610
vt 0.915414 0.731278
vt 0.931373 0.731352
vt 0.950522 0.739340
vt 0.961561 0.751876
vt 0.919712 0.694356
vt 0.928394 0.696053
vt 0.926946 0.679027
vt 0.922632 0.716056
vt 0.894553 0.647070
vt 0.923204 0.664457
vn -0.7496 0.0572 0.6594
vn -0.7660 0.0543 0.6406
vn -0.1333 0.0616 0.9892
vn -0.1273 0.0335 0.9913
vn 0.6260 0.0318 0.7792
vn 0.5954 0.0227 0.8031
vn -0.9845 0.0611 0.1645
vn -0.9745 0.1190 0.1903
vn -0.9435 0.0259 -0.3303
vn -0.9209 0.1318 -0.3668
vn -0.6440 0.0805 -0.7608
vn -0.6389 0.0112 -0.7692
vn -0.0585 0.1055 -0.9927
vn 0.0019 0.0349 -0.9994
vn 0.6324 0.1205 -0.7653
vn 0.6928 0.0429 -0.7198
vn 0.9843 0.0256 -0.1746
vn 0.9775 0.0644 -0.2007
vn 0.9407 0.0202 0.3388
vn 0.9443 0.0296 0.3277
vn -0.7773 0.1645 0.6072
vn -0.0807 0.2646 0.9610
vn 0.6537 0.1859 0.7335
vn -0.9996 0.0220 0.0191
vn -0.9885 -0.1141 0.0997
vn -0.9941 0.0315 0.1034
vn -0.9080 0.0553 -0.4153
vn -0.8741 -0.0514 -0.4829
vn -0.0407 0.2234 -0.9739
vn -0.6191 0.1829 -0.7637
vn 0.5751 0.1437 -0.8054
vn 0.8299 0.1259 -0.5435
vn 0.8529 0.0566 -0.5191
vn 0.9655 0.1475 -0.2148
vn 0.9761 0.0824 -0.2009
vn 0.8489 0.0983 0.5193
vn 0.8360 0.0425 0.5470
vn 0.9554 0.0937 0.2799
vn 0.9437 0.0954 0.3168
vn -0.8105 0.3886 0.4383
vn 0.0090 0.6459 0.7633
vn -0.9929 0.1024 0.0612
vn -0.6043 0.7337 0.3108
vn 0.0541 0.8906 0.4516
vn -0.9996 -0.0294 0.0025
vn -0.9956 0.0803 0.0481
vn -0.9701 0.2412 -0.0284
vn 0.7594 0.4547 0.4653
vn 0.5862 0.7614 0.2768
vn 0.9520 0.0556 0.3009
vn 0.9731 0.1883 0.1325
vn 0.9914 0.0475 0.1220
vn 0.9337 0.3557 -0.0417
vn 0.9693 -0.0267 -0.2445
vn 0.9833 -0.1521 -0.1004
vn 0.9614 -0.1345 0.2398
vn 0.9872 0.0397 -0.1547
vn 0.7173 0.1518 -0.6800
vn 0.7477 0.1052 -0.6556
vn 0.0495 0.2478 -0.9676
vn 0.0973 0.1233 -0.9876
vn -0.6356 0.1993 -0.7459
vn -0.6359 0.0646 -0.7691
vn -0.9145 0.0690 -0.3987
vn -0.9442 0.1022 -0.3131
vn -0.9593 -0.0076 -0.2824
vn 0.0185 -0.9853 -0.1695
vn 0.7016 -0.6966 -0.1497
vn 0.6556 -0.7488 0.0974
vn -0.0358 -0.9944 0.0996
vn 0.0619 -0.7126 -0.6989
vn 0.5652 -0.5965 -0.5699
vn 0.9793 -0.1874 0.0760
vn 0.9771 -0.1510 -0.1501
vn 0.4047 -0.9015 -0.1535
vn -0.1114 -0.9884 -0.1035
vn -0.1060 -0.9942 0.0180
vn 0.5439 -0.8386 -0.0310
vn -0.6610 -0.7124 -0.2355
vn -0.4519 -0.6100 -0.6510
vn -0.9403 -0.1993 -0.2759
vn -0.9678 -0.2512 0.0136
vn -0.6624 -0.7444 0.0841
vn -0.6517 -0.7582 -0.0183
vn 0.0884 -0.1968 -0.9765
vn -0.5982 -0.1810 -0.7807
vn 0.9659 -0.2566 -0.0354
vn 0.9198 -0.3210 -0.2257
vn 0.7260 -0.1487 -0.6715
vn -0.9563 -0.2814 -0.0797
vn -0.5577 -0.8115 -0.1743
vn -0.9295 -0.3141 -0.1933
vn -0.0568 -0.9983 -0.0118
vn 0.4639 -0.8857 -0.0177
vn -0.9715 -0.2342 -0.0359
vn -0.8795 0.4714 0.0649
vn -0.4246 0.8765 0.2267
vn -0.5197 -0.8521 -0.0617
vn 0.0590 0.9521 0.3000
vn 0.4688 0.8491 0.2434
vn 0.8649 0.5011 0.0291
vn 0.9738 -0.2181 -0.0643
vn 0.0289 -0.9534 0.3004
vn -0.4656 -0.7885 0.4019
vn 0.1074 0.9411 0.3206
vn 0.4394 0.8410 0.3157
vn 0.6885 0.6729 0.2707
vn -0.3568 0.9031 0.2390
vn -0.7485 0.6444 0.1566
vn -0.4435 0.4504 0.7749
vn -0.9366 0.0411 0.3481
vn 0.5839 0.4337 0.6863
vn 0.9141 0.0241 0.4048
vn 0.4829 -0.7637 0.4285
vn 0.4408 -0.4950 0.7487
vn 0.2069 -0.4572 0.8649
vn -0.1878 -0.4596 0.8680
vn 0.2150 0.5481 0.8083
s 1
f 2/1/1 11/2/2 12/3/3 1/4/4
f 13/5/5 8/6/6 1/4/4 12/3/3
f 11/2/2 2/1/1 3/7/7 14/8/8
f 3/7/7 4/9/9 15/10/10 14/8/8
f 16/11/11 15/10/10 4/9/9 5/12/12
f 17/13/13 16/14/11 5/15/12 6/16/14
f 18/17/15 17/13/13 6/16/14 7/18/16
f 18/17/15 7/18/16 9/19/17 19/20/18
f 10/21/19 20/22/20 19/20/18 9/19/17
f 13/5/5 20/22/20 10/21/19 8/6/6
f 11/2/2 21/23/21 22/24/22 12/3/3
f 23/25/23 13/5/5 12/3/3 22/24/22
f 11/2/2 14/8/8 24/26/24 25/27/25
f 11/2/2 25/27/25 26/28/26 21/23/21
f 14/8/8 15/10/10 27/29/27 24/26/24
f 25/27/25 24/26/24 27/29/27 28/30/28
f 28/30/28 27/29/27 15/10/10 16/11/11
f 29/31/29 30/32/30 16/14/11 17/13/13
f 31/33/31 29/31/29 17/13/13 18/17/15
f 18/17/15 32/34/32 33/35/33 31/33/31
f 18/17/15 19/20/18 34/36/34 32/34/32
f 33/35/33 32/34/32 34/36/34 35/37/35
f 13/5/5 23/25/23 36/38/36 37/39/37
f 20/22/20 13/5/5 37/39/37 38/40/38
f 19/20/18 20/22/20 38/40/38 34/36/34
f 38/40/38 37/39/37 36/38/36 39/41/39
f 34/36/34 38/40/38 39/41/39 35/37/35
f 40/42/40 41/43/41 22/24/22 21/23/21
f 40/42/40 21/23/21 26/28/26 42/44/42
f 40/42/40 43/45/43 44/46/44 41/43/41
f 40/42/40 42/44/42 45/47/45 46/48/46
f 40/42/40 46/48/46 47/49/47 43/45/43
f 23/25/23 22/24/22 41/43/41 48/50/48
f 41/43/41 44/46/44 49/51/49 48/50/48
f 48/50/48 50/52/50 36/38/36 23/25/23
f 48/50/48 51/53/51 52/54/52 50/52/50
f 48/50/48 49/51/49 53/55/53 51/53/51
f 50/52/50 54/56/54 55/57/55 56/58/56
f 50/52/50 56/58/56 39/41/39 36/38/36
f 57/59/57 54/56/54 50/52/50 52/54/52
f 39/41/39 56/58/56 55/57/55 35/37/35
f 54/56/54 33/35/33 35/37/35 55/57/55
f 54/56/54 58/60/58 31/33/31 33/35/33
f 59/61/59 58/60/58 54/56/54 57/59/57
f 58/60/58 60/62/60 29/31/29 31/33/31
f 61/63/61 60/62/60 58/60/58 59/61/59
f 60/62/60 62/64/62 30/32/30 29/31/29
f 61/63/61 63/65/63 62/64/62 60/62/60
f 64/66/64 30/67/30 62/68/62 65/69/65
f 63/70/63 66/71/66 65/69/65 62/68/62
f 42/44/42 26/28/26 64/66/64 65/69/65
f 42/44/42 65/69/65 66/71/66 45/47/45
f 67/72/67 68/73/68 69/74/69 70/75/70
f 71/76/71 72/77/72 68/73/68 67/72/67
f 52/54/52 73/78/73 74/79/74 57/59/57
f 75/80/75 76/81/76 77/82/77 78/83/78
f 71/76/71 67/72/67 79/84/79 80/85/80
f 66/71/66 81/86/81 82/87/82 45/47/45
f 67/72/67 70/75/70 83/88/83 79/84/79
f 84/89/84 83/88/83 70/75/70 77/82/77
f 63/65/63 61/63/61 85/90/85 86/91/86
f 87/92/87 51/53/51 53/55/53 88/93/88
f 57/59/57 74/79/74 89/94/89 59/61/59
f 78/83/78 77/82/77 70/75/70 69/74/69
f 61/63/61 59/61/59 89/94/89 85/90/85
f 66/71/66 63/70/63 86/95/86 81/86/81
f 46/48/46 45/47/45 82/87/82 90/96/90
f 91/97/91 84/89/84 77/82/77 76/81/76
f 90/96/90 92/98/92 47/49/47 46/48/46
f 73/78/73 69/74/69 68/73/68 74/79/74
f 85/90/85 71/99/71 80/100/80 86/91/86
f 78/83/78 87/92/87 88/93/88 75/80/75
f 81/86/81 79/101/79 83/102/83 82/87/82
f 90/96/90 84/103/84 91/104/91 92/98/92
f 74/79/74 68/73/68 72/77/72 89/94/89
f 89/94/89 72/77/72 71/99/71 85/90/85
f 69/74/69 73/78/73 87/92/87 78/83/78
f 86/95/86 80/105/80 79/101/79 81/86/81
f 82/87/82 83/102/83 84/103/84 90/96/90
f 51/53/51 87/92/87 73/78/73 52/54/52
f 28/30/28 64/66/64 26/28/26 25/27/25
f 16/11/11 30/67/30 64/66/64 28/30/28
f 93/106/93 76/81/76 75/80/75 94/107/94
f 95/108/95 96/109/96 47/49/47 92/98/92
f 43/45/43 47/49/47 96/109/96 97/110/97
f 98/111/98 91/97/91 76/81/76 93/106/93
f 44/46/44 43/45/43 97/110/97 99/112/99
f 99/112/99 100/113/100 49/51/49 44/46/44
f 53/55/53 49/51/49 100/113/100 101/114/101
f 88/93/88 53/55/53 101/114/101 102/115/102
f 98/111/98 93/106/93 103/116/103 104/117/104
f 100/113/100 99/112/99 105/118/105 106/119/106
f 106/119/106 107/120/107 101/114/101 100/113/100
f 97/110/97 108/121/108 105/118/105 99/112/99
f 108/121/108 97/110/97 96/109/96 109/122/109
f 110/123/110 108/121/108 109/122/109 111/124/111
f 112/125/112 113/126/113 107/120/107 106/119/106
f 114/127/114 115/128/115 116/129/116 103/116/103
f 104/117/104 103/116/103 116/129/116 117/130/117
f 113/126/113 102/115/102 101/114/101 107/120/107
f 118/131/118 105/118/105 108/121/108 110/123/110
f 103/116/103 93/106/93 94/107/94 114/127/114
f 111/124/111 109/122/109 96/109/96 95/108/95
f 118/131/118 112/125/112 106/119/106 105/118/105
f 116/132/116 118/131/118 110/123/110 117/133/117
f 94/107/94 102/115/102 113/126/113 114/127/114
f 112/125/112 115/134/115 114/127/114 113/126/113
f 95/108/95 98/135/98 104/136/104 111/124/111
f 117/133/117 110/123/110 111/124/111 104/136/104
f 92/98/92 91/104/91 98/135/98 95/108/95
f 75/80/75 88/93/88 102/115/102 94/107/94
f 118/131/118 116/132/116 115/134/115 112/125/112
