# Blender v2.83.0 OBJ File: 'Nendoroid_AExport.blend'
# www.blender.org
o Nendoroid_A_Foot04
v -0.121919 -0.016673 -0.035914
v -0.081125 0.015385 -0.102148
v -0.008138 0.041833 -0.129778
v 0.067520 0.051921 -0.106709
v 0.117143 0.041408 -0.040675
v 0.121919 0.014557 0.041705
v 0.079631 -0.017732 0.106082
v 0.007773 -0.042471 0.129778
v -0.066071 -0.051921 0.106024
v -0.115522 -0.042306 0.043235
v -0.097242 -0.149722 -0.054652
v -0.061650 -0.135791 -0.109368
v -0.095560 -0.160199 0.013665
v -0.057098 -0.162895 0.068204
v 0.003537 -0.157556 0.089496
v 0.063777 -0.146704 0.070476
v 0.100444 -0.133697 0.016421
v 0.098592 -0.122964 -0.053366
v 0.059177 -0.119098 -0.109295
v -0.002035 -0.124015 -0.130151
v -0.042409 -0.230747 -0.112007
v 0.001362 -0.224798 -0.127294
v 0.045852 -0.225031 -0.110041
v 0.074082 -0.231400 -0.065470
v 0.074430 -0.241049 -0.009810
v 0.046665 -0.249654 0.033483
v 0.002075 -0.254820 0.048128
v -0.042187 -0.255309 0.030072
v -0.069473 -0.250196 -0.014663
v -0.069413 -0.240576 -0.069373
v 0.002627 -0.433465 -0.116019
v -0.054506 -0.433465 -0.078793
v -0.055470 -0.433464 -0.033075
v 0.048023 -0.433464 0.008778
v 0.064364 -0.322288 -0.077034
v 0.064516 -0.328336 -0.034322
v 0.040343 -0.317890 -0.110713
v 0.002525 -0.433464 0.022492
v -0.042577 -0.433464 0.007572
v -0.039645 -0.433464 -0.110477
v -0.040818 -0.403885 -0.109612
v -0.043256 -0.400267 0.000426
v 0.002286 -0.317133 -0.123553
v 0.002383 -0.399278 0.014204
v 0.048480 -0.399201 0.001766
v -0.067585 -0.402333 -0.037394
v -0.058697 -0.326206 -0.079203
v -0.058978 -0.332281 -0.037232
v 0.040928 -0.333402 0.000711
v 0.002220 -0.336068 0.012706
v -0.036097 -0.335878 -0.001420
v -0.035342 -0.320322 -0.111701
v -0.066756 -0.403596 -0.078613
v 0.002507 -0.403870 -0.120565
v 0.046251 -0.402969 -0.109413
v 0.073590 -0.400712 -0.035779
v 0.072866 -0.402069 -0.077723
v 0.002782 -0.433466 -0.079486
v 0.002741 -0.433466 -0.031242
v 0.060591 -0.433464 -0.078261
v 0.061482 -0.433464 -0.031894
v 0.045257 -0.433464 -0.110426
vt 0.579044 0.147836
vt 0.564970 0.184871
vt 0.541073 0.180378
vt 0.560963 0.141017
vt 0.598008 0.154483
vt 0.588805 0.189192
vt 0.616627 0.160676
vt 0.611515 0.194754
vt 0.635087 0.165656
vt 0.633266 0.201483
vt 0.653864 0.168536
vt 0.655608 0.208084
vt 0.673524 0.168590
vt 0.679687 0.212652
vt 0.694025 0.165331
vt 0.705118 0.212619
vt 0.713226 0.159414
vt 0.728817 0.207025
vt 0.730404 0.151323
vt 0.749335 0.195961
vt 0.746458 0.141561
vt 0.767864 0.180596
vt 0.731588 0.117376
vt 0.719108 0.123578
vt 0.705220 0.128108
vt 0.688568 0.131230
vt 0.670246 0.132965
vt 0.653103 0.133518
vt 0.637427 0.132248
vt 0.621781 0.129052
vt 0.604871 0.124684
vt 0.587554 0.120044
vt 0.572430 0.115249
vt 0.626551 0.075308
vt 0.613096 0.073347
vt 0.616394 0.064345
vt 0.628870 0.065192
vt 0.685378 0.101266
vt 0.670578 0.101976
vt 0.698509 0.099636
vt 0.641718 0.077370
vt 0.642801 0.066299
vt 0.601976 0.070978
vt 0.603209 0.061750
vt 0.670157 0.078987
vt 0.656920 0.078392
vt 0.656812 0.067677
vt 0.668579 0.069908
vt 0.710646 0.096803
vt 0.717208 0.068386
vt 0.704561 0.071802
vt 0.702367 0.063301
vt 0.714521 0.060054
vt 0.691913 0.075021
vt 0.690010 0.066265
vt 0.680987 0.078033
vt 0.680656 0.069313
vt 0.594968 0.093114
vt 0.609195 0.095709
vt 0.582830 0.090510
vt 0.655257 0.101337
vt 0.639889 0.099706
vt 0.624409 0.097909
vt 0.721758 0.092646
vt 0.692140 0.053826
vt 0.681551 0.053608
vt 0.681345 0.036888
vt 0.690683 0.041330
vt 0.667655 0.053707
vt 0.651985 0.054400
vt 0.667846 0.036751
vt 0.655911 0.040869
vt 0.591008 0.067301
vt 0.593198 0.058726
vn -0.9391 -0.1799 -0.2927
vn -0.9395 -0.1277 -0.3180
vn -0.5759 -0.0378 -0.8166
vn -0.6119 -0.0723 -0.7876
vn -0.9203 -0.2810 0.2721
vn -0.9293 -0.2295 0.2893
vn -0.5680 -0.3475 0.7460
vn -0.5350 -0.3093 0.7862
vn 0.0321 -0.3625 0.9314
vn 0.1024 -0.3270 0.9395
vn 0.6249 -0.3159 0.7139
vn 0.6855 -0.2673 0.6773
vn 0.9491 -0.2245 0.2209
vn 0.9713 -0.1681 0.1682
vn 0.9362 -0.1250 -0.3285
vn 0.9270 -0.0777 -0.3670
vn 0.6004 -0.0439 -0.7985
vn 0.5919 -0.0172 -0.8058
vn -0.0052 -0.0160 -0.9999
vn 0.0251 0.0015 -0.9997
vn -0.5907 -0.0745 -0.8035
vn 0.0145 -0.0327 -0.9994
vn 0.6086 -0.0511 -0.7918
vn 0.9417 -0.1231 -0.3132
vn 0.9433 -0.2310 0.2382
vn 0.6004 -0.3445 0.7217
vn 0.0015 -0.3964 0.9181
vn -0.5916 -0.3627 0.7200
vn -0.9330 -0.2649 0.2438
vn -0.9354 -0.1585 -0.3160
vn -0.6555 0.0637 0.7525
vn -0.9704 -0.0736 0.2302
vn -0.6341 -0.7563 0.1611
vn -0.5090 -0.5871 0.6295
vn 0.9438 0.0104 -0.3303
vn 0.9663 -0.0314 0.2556
vn 0.5820 -0.0032 -0.8132
vn -0.0208 0.1305 0.9912
vn -0.0131 -0.5582 0.8296
vn -0.9498 -0.1024 -0.2958
vn -0.6107 -0.7656 -0.2022
vn 0.9676 -0.0695 0.2428
vn 0.6346 0.0594 0.7705
vn 0.4994 -0.5862 0.6380
vn 0.6401 -0.7496 0.1683
vn 0.0112 -0.0247 -0.9996
vn -0.5680 -0.0557 -0.8212
vn 0.0030 -0.0409 -0.9992
vn 0.0010 -0.7029 -0.7113
vn -0.4105 -0.6596 -0.6296
vn 0.5702 -0.0466 -0.8202
vn 0.4125 -0.6563 -0.6318
vn 0.9507 -0.0914 -0.2964
vn 0.6171 -0.7596 -0.2052
vn -0.9424 -0.0030 -0.3343
vn -0.9679 -0.0363 0.2485
vn -0.5703 -0.0169 -0.8213
vn 0.6161 -0.1334 0.7763
vn -0.0200 -0.1842 0.9827
vn -0.6348 -0.1270 0.7621
vn -0.0008 -1.0000 -0.0001
vn 0.0005 -1.0000 -0.0016
s 1
f 11/1/1 1/2/2 2/3/3 12/4/4
f 13/5/5 10/6/6 1/2/2 11/1/1
f 14/7/7 9/8/8 10/6/6 13/5/5
f 15/9/9 8/10/10 9/8/8 14/7/7
f 16/11/11 7/12/12 8/10/10 15/9/9
f 17/13/13 6/14/14 7/12/12 16/11/11
f 18/15/15 5/16/16 6/14/14 17/13/13
f 19/17/17 4/18/18 5/16/16 18/15/15
f 20/19/19 3/20/20 4/18/18 19/17/17
f 12/21/4 2/22/3 3/20/20 20/19/19
f 21/23/21 12/21/4 20/19/19 22/24/22
f 22/24/22 20/19/19 19/17/17 23/25/23
f 23/25/23 19/17/17 18/15/15 24/26/24
f 24/26/24 18/15/15 17/13/13 25/27/25
f 25/27/25 17/13/13 16/11/11 26/28/26
f 26/28/26 16/11/11 15/9/9 27/29/27
f 27/29/27 15/9/9 14/7/7 28/30/28
f 28/30/28 14/7/7 13/5/5 29/31/29
f 29/31/29 13/5/5 11/1/1 30/32/30
f 30/32/30 11/1/1 12/4/4 21/33/21
f 42/34/31 46/35/32 33/36/33 39/37/34
f 35/38/35 24/26/24 25/27/25 36/39/36
f 37/40/37 23/25/23 24/26/24 35/38/35
f 44/41/38 42/34/31 39/37/34 38/42/39
f 46/35/32 53/43/40 32/44/41 33/36/33
f 56/45/42 45/46/43 34/47/44 61/48/45
f 43/49/46 22/24/22 23/25/23 37/40/37
f 41/50/47 54/51/48 31/52/49 40/53/50
f 54/51/48 55/54/51 62/55/52 31/52/49
f 55/54/51 57/56/53 60/57/54 62/55/52
f 45/46/43 44/41/38 38/42/39 34/47/44
f 37/40/37 35/38/35 57/56/53 55/54/51
f 47/58/55 48/59/56 29/31/29 30/32/30
f 52/60/57 47/58/55 30/32/30 21/33/21
f 36/39/36 49/61/58 45/46/43 56/45/42
f 50/62/59 51/63/60 42/34/31 44/41/38
f 35/38/35 36/39/36 56/45/42 57/56/53
f 43/49/46 52/64/57 21/23/21 22/24/22
f 43/49/46 37/40/37 55/54/51 54/51/48
f 52/64/57 43/49/46 54/51/48 41/50/47
f 51/63/60 48/59/56 46/35/32 42/34/31
f 48/59/56 47/58/55 53/43/40 46/35/32
f 27/29/27 50/62/59 49/61/58 26/28/26
f 28/30/28 51/63/60 50/62/59 27/29/27
f 29/31/29 48/59/56 51/63/60 28/30/28
f 26/28/26 49/61/58 36/39/36 25/27/25
f 31/65/49 58/66/61 32/67/41 40/68/50
f 62/55/52 60/57/54 58/66/61 31/65/49
f 60/57/54 61/48/45 59/69/62 58/66/61
f 61/48/45 34/47/44 38/70/39 59/69/62
f 58/66/61 59/69/62 33/71/33 32/67/41
f 59/69/62 38/70/39 39/72/34 33/71/33
f 57/56/53 56/45/42 61/48/45 60/57/54
f 53/43/40 41/73/47 40/74/50 32/44/41
f 49/61/58 50/62/59 44/41/38 45/46/43
f 47/58/55 52/60/57 41/73/47 53/43/40
