# Blender v2.83.0 OBJ File: 'Base_Male_AExport.blend'
# www.blender.org
o Base_Male_A_Foot02
v -0.113305 0.015467 0.205200
v -0.129497 -0.279351 0.165152
v 0.007865 -0.273799 0.239498
v 0.007330 -0.001145 0.253421
v 0.139107 -0.327683 0.178815
v 0.127558 -0.022896 0.187651
v -0.181558 0.027394 0.083019
v -0.188456 -0.224793 0.054104
v -0.180206 0.024411 -0.054940
v -0.177865 -0.223023 -0.074621
v -0.125584 -0.256047 -0.181210
v -0.121034 0.009885 -0.167912
v -0.003740 -0.300121 -0.271577
v -0.012664 -0.009572 -0.227213
v 0.116077 -0.324009 -0.252109
v 0.106759 -0.021169 -0.207998
v 0.188817 -0.017096 -0.098717
v 0.199839 -0.252360 -0.125708
v 0.199642 -0.017885 0.050754
v 0.204689 -0.256657 0.035262
v -0.123912 -0.450004 0.193883
v -0.007993 -0.439905 0.257982
v 0.106738 -0.482897 0.213604
v -0.229503 -0.347904 0.008015
v -0.214657 -0.410899 0.032149
v -0.183803 -0.481542 0.060103
v -0.213128 -0.343361 -0.077945
v -0.179787 -0.402872 -0.121505
v 0.008635 -0.487724 -0.289118
v -0.092371 -0.488870 -0.233385
v 0.122573 -0.506119 -0.270540
v 0.176934 -0.411138 -0.200481
v 0.179683 -0.509588 -0.204688
v 0.205388 -0.363140 -0.122690
v 0.242568 -0.492717 -0.111428
v 0.178710 -0.516391 0.115210
v 0.177781 -0.435525 0.101406
v 0.209160 -0.373312 0.016552
v 0.237866 -0.495288 0.020221
v -0.148378 -0.605955 0.314593
v -0.011584 -0.560113 0.387860
v -0.202647 -0.622311 0.062153
v -0.161200 -0.760651 0.545447
v -0.018046 -0.740844 0.576525
v -0.207355 -0.802821 0.042386
v -0.197585 -0.800030 0.263525
v -0.249759 -0.870472 0.499650
v 0.125486 -0.615836 0.327336
v 0.123915 -0.777725 0.566691
v 0.205600 -0.636385 0.077406
v 0.188636 -0.801367 0.286647
v 0.217943 -0.803006 0.063619
v 0.234167 -0.898282 0.534370
v 0.219460 -0.639759 -0.118145
v 0.241574 -0.579905 -0.073620
v 0.236488 -0.574781 0.010115
v 0.226276 -0.806767 -0.130128
v 0.152231 -0.635376 -0.263915
v 0.176653 -0.790912 -0.301891
v 0.025283 -0.622605 -0.333386
v 0.050826 -0.773823 -0.371869
v -0.105876 -0.622146 -0.284018
v -0.108840 -0.781388 -0.325626
v -0.152395 -0.504413 -0.138991
v -0.183422 -0.624853 -0.149214
v -0.194204 -0.798897 -0.164878
v 0.039555 -1.085147 -0.163387
v 0.172930 -1.050091 -0.149238
v 0.163669 -1.037362 0.021556
v 0.023194 -1.076430 0.011839
v 0.054830 -1.034227 -0.303240
v 0.142532 -1.020469 -0.268866
v 0.191634 -0.955924 0.042890
v 0.215036 -0.958250 -0.147491
v -0.012157 -1.091123 0.756165
v -0.013163 -1.076476 0.497176
v 0.182063 -1.064729 0.510673
v 0.254558 -1.087325 0.771209
v 0.008058 -1.023279 0.222236
v 0.148933 -0.992787 0.248261
v -0.106177 -1.050406 -0.169420
v -0.045827 -1.017228 -0.279762
v -0.158046 -0.961779 -0.176992
v -0.173182 -0.956746 0.023236
v -0.133088 -1.038023 0.006355
v -0.138038 -0.993221 0.219695
v -0.282595 -1.010314 0.778432
v -0.278799 -0.952522 0.779386
v -0.237717 -0.961936 0.502024
v -0.179990 -0.881256 0.789441
v -0.236498 -1.071933 0.763037
v -0.194199 -1.025374 0.500073
v -0.023095 -0.858045 0.790173
v 0.164003 -0.884228 0.775265
v 0.293690 -0.961379 0.758888
v 0.058903 -0.936902 -0.371069
v -0.088442 -0.934161 -0.328355
v 0.180657 -0.928193 0.259988
v 0.234730 -1.008405 0.524230
v 0.304006 -1.030452 0.761774
v 0.186525 -0.935335 -0.308673
v -0.177107 -0.909425 0.242681
v -0.036994 -1.082185 1.016975
v -0.226154 -1.061413 1.027092
v -0.033716 -0.916202 0.991739
v 0.159181 -0.947751 0.941726
v 0.239005 -0.985946 0.890366
v -0.193483 -0.933907 0.995763
v -0.248369 -0.976236 0.938881
v -0.206336 -0.962989 1.098766
v -0.279247 -1.001501 1.013708
v 0.143540 -0.980435 1.030617
v 0.273157 -1.019362 0.932211
v 0.210998 -1.073787 0.955660
v 0.123285 -1.044033 1.040018
v -0.038964 -1.030204 1.106521
v -0.171952 -1.023575 1.103056
v -0.044471 -0.958152 1.106532
vt 0.728238 0.856562
vt 0.761904 0.848801
vt 0.763302 0.869616
vt 0.730472 0.869899
vt 0.767825 0.889734
vt 0.732588 0.883731
vt 0.725071 0.842716
vt 0.752215 0.835014
vt 0.722600 0.828851
vt 0.747688 0.820663
vt 0.747032 0.807561
vt 0.720771 0.815879
vt 0.740057 0.951050
vt 0.727507 0.961021
vt 0.705161 0.946121
vt 0.713787 0.936919
vt 0.748458 0.941485
vt 0.720685 0.926702
vt 0.725172 0.913711
vt 0.747850 0.923651
vt 0.729057 0.899071
vt 0.754040 0.906586
vt 0.786784 0.846363
vt 0.790117 0.867998
vt 0.791520 0.889472
vt 0.763414 0.824963
vt 0.771237 0.825513
vt 0.781509 0.825222
vt 0.760344 0.816896
vt 0.764399 0.809520
vt 0.757139 0.960626
vt 0.750023 0.970103
vt 0.765113 0.951175
vt 0.760466 0.938230
vt 0.769690 0.943181
vt 0.759387 0.927762
vt 0.773374 0.931836
vt 0.788135 0.907792
vt 0.777777 0.904865
vt 0.766547 0.912993
vt 0.779961 0.919046
vt 0.816187 0.844474
vt 0.818099 0.867214
vt 0.796993 0.816279
vt 0.852906 0.847842
vt 0.853964 0.866362
vt 0.812197 0.801571
vt 0.830000 0.820633
vt 0.857945 0.831148
vt 0.818255 0.890359
vt 0.856455 0.884728
vt 0.798851 0.920664
vt 0.833247 0.914033
vt 0.813675 0.934402
vt 0.864718 0.902669
vt 0.787025 0.940450
vt 0.783400 0.932583
vt 0.787615 0.924206
vt 0.801080 0.950681
vt 0.778327 0.955153
vt 0.790970 0.964110
vt 0.770105 0.967242
vt 0.783086 0.973728
vt 0.761755 0.978024
vt 0.775234 0.986734
vt 0.773059 0.802154
vt 0.766154 0.792601
vt 0.775942 0.782261
vt 0.784836 0.795549
vt 0.787280 0.770341
vt 0.798813 0.784413
vt 0.824398 0.977588
vt 0.817583 0.967377
vt 0.828709 0.955972
vt 0.837953 0.967414
vt 0.811877 0.985116
vt 0.808783 0.975694
vt 0.824466 0.947932
vt 0.811248 0.961096
vt 0.905481 0.924026
vt 0.883379 0.937567
vt 0.874723 0.920031
vt 0.893583 0.904729
vt 0.856336 0.952331
vt 0.847177 0.936461
vt 0.833195 0.989420
vt 0.819905 0.992582
vt 0.810757 0.773076
vt 0.823325 0.788779
vt 0.848567 0.979522
vt 0.866064 0.965632
vt 0.890684 0.833571
vt 0.887573 0.838305
vt 0.863721 0.822735
vt 0.883582 0.849954
vt 0.918968 0.941854
vt 0.893817 0.954048
vt 0.881561 0.865804
vt 0.882299 0.884108
vt 0.886001 0.896194
vt 0.795233 0.979909
vt 0.789194 0.992583
vt 0.842302 0.928635
vt 0.871595 0.912617
vt 0.889406 0.900134
vt 0.800984 0.970282
vt 0.799411 0.760815
vt 0.836805 0.808963
vt 0.926796 0.910804
vt 0.939403 0.924770
vt 0.901428 0.865738
vt 0.898099 0.882687
vt 0.895478 0.890790
vt 0.903058 0.852549
vt 0.900828 0.845304
vt 0.911285 0.852407
vt 0.907392 0.845302
vt 0.906778 0.881656
vt 0.899529 0.893135
vt 0.907122 0.895021
vt 0.919618 0.896154
vt 0.934896 0.904665
vt 0.942993 0.915278
vt 0.911950 0.864904
vt 0.918316 0.866493
vt 0.917546 0.852822
vt 0.804851 0.984399
vt 0.799942 0.993797
vt 0.818502 0.766521
vt 0.828846 0.781097
vt 0.913177 0.883254
vt 0.893175 0.826111
vt 0.914966 0.841544
vt 0.841257 0.799502
vt 0.867273 0.815420
vt 0.809404 0.757119
vn -0.6870 -0.0509 0.7249
vn -0.7120 0.0192 0.7019
vn 0.0006 0.0263 0.9997
vn -0.0395 -0.0579 0.9975
vn 0.7239 0.0218 0.6895
vn 0.6917 -0.0109 0.7221
vn -0.9715 -0.0057 0.2370
vn -0.9658 0.0786 0.2473
vn -0.9712 0.0230 -0.2373
vn -0.9425 0.1290 -0.3082
vn -0.7143 0.0783 -0.6955
vn -0.7518 0.0580 -0.6569
vn -0.1921 0.1140 -0.9747
vn -0.2267 0.1214 -0.9664
vn 0.5217 0.1265 -0.8437
vn 0.5258 0.1389 -0.8392
vn 0.9447 0.0746 -0.3193
vn 0.9399 0.0847 -0.3308
vn 0.9774 0.0232 0.2103
vn 0.9785 0.0249 0.2048
vn -0.7695 0.2536 0.5861
vn -0.0252 0.4363 0.8995
vn 0.7243 0.2723 0.6334
vn -0.9946 0.0133 0.1032
vn -0.9709 -0.1699 0.1689
vn -0.9878 0.0382 0.1509
vn -0.9429 0.0269 -0.3319
vn -0.8934 -0.1209 -0.4327
vn -0.1183 0.1879 -0.9750
vn -0.6658 0.1644 -0.7278
vn 0.5503 0.1206 -0.8262
vn 0.8054 0.1126 -0.5820
vn 0.8365 0.0470 -0.5460
vn 0.9477 0.1424 -0.2855
vn 0.9625 0.0713 -0.2617
vn 0.8802 0.1270 0.4573
vn 0.8699 0.0633 0.4891
vn 0.9713 0.1118 0.2100
vn 0.9544 0.1099 0.2776
vn -0.7840 0.4878 0.3839
vn 0.0075 0.7495 0.6620
vn -0.9874 0.1514 0.0451
vn -0.6057 0.7188 0.3413
vn 0.0121 0.8428 0.5381
vn -0.9978 -0.0654 0.0037
vn -0.9981 0.0622 0.0020
vn -0.9714 0.2335 -0.0438
vn 0.7481 0.5040 0.4316
vn 0.5635 0.7434 0.3603
vn 0.9675 0.0610 0.2453
vn 0.9843 0.1523 0.0888
vn 0.9936 -0.0125 0.1123
vn 0.9372 0.3464 -0.0398
vn 0.9714 -0.0288 -0.2357
vn 0.9744 -0.1876 -0.1237
vn 0.9642 -0.1532 0.2163
vn 0.9944 0.0153 -0.1041
vn 0.7266 0.1751 -0.6644
vn 0.7685 0.1268 -0.6271
vn 0.0346 0.2664 -0.9632
vn 0.1118 0.1478 -0.9827
vn -0.6425 0.2341 -0.7296
vn -0.6356 0.0489 -0.7705
vn -0.9243 0.0572 -0.3773
vn -0.9433 0.1558 -0.2931
vn -0.9608 -0.0488 -0.2728
vn 0.0169 -0.9889 -0.1474
vn 0.6404 -0.7622 -0.0946
vn 0.6323 -0.7607 0.1466
vn -0.0010 -0.9905 0.1372
vn 0.0534 -0.7803 -0.6232
vn 0.5364 -0.7019 -0.4686
vn 0.9571 -0.2714 0.1016
vn 0.9632 -0.2550 -0.0846
vn -0.0486 -0.9983 -0.0308
vn -0.0595 -0.9860 -0.1560
vn 0.4474 -0.8661 -0.2230
vn 0.4606 -0.8875 -0.0142
vn -0.0256 -0.9995 0.0195
vn 0.6078 -0.7922 -0.0542
vn -0.5661 -0.7921 -0.2282
vn -0.4057 -0.7160 -0.5682
vn -0.8909 -0.3552 -0.2830
vn -0.9394 -0.3428 -0.0037
vn -0.6162 -0.7854 0.0590
vn -0.6277 -0.7778 -0.0307
vn -0.9693 -0.2393 -0.0556
vn -0.8875 0.4551 0.0725
vn -0.9282 -0.2986 -0.2220
vn -0.4394 0.8538 0.2792
vn -0.5122 -0.8550 -0.0819
vn -0.5721 -0.7915 -0.2152
vn 0.0268 0.9269 0.3743
vn 0.4235 0.8517 0.3085
vn 0.8519 0.5157 0.0905
vn 0.0927 -0.2829 -0.9547
vn -0.5839 -0.3063 -0.7518
vn 0.9644 -0.2559 -0.0662
vn 0.9128 -0.3108 -0.2652
vn 0.9740 -0.2257 -0.0217
vn 0.7591 -0.2332 -0.6078
vn -0.9474 -0.3015 -0.1075
vn 0.0042 -0.9593 0.2823
vn -0.4812 -0.7963 0.3665
vn 0.0662 0.9471 0.3139
vn 0.3836 0.8600 0.3364
vn 0.6464 0.6954 0.3140
vn -0.3651 0.9061 0.2137
vn -0.7478 0.6511 0.1301
vn -0.4923 0.4491 0.7456
vn -0.9535 0.0451 0.2980
vn 0.5058 0.4630 0.7279
vn 0.8865 0.0331 0.4615
vn 0.4568 -0.7587 0.4644
vn 0.3689 -0.4956 0.7863
vn 0.1312 -0.4662 0.8749
vn -0.2442 -0.4747 0.8456
vn 0.1362 0.5665 0.8127
s 1
f 1/1/1 2/2/2 3/3/3 4/4/4
f 5/5/5 6/6/6 4/4/4 3/3/3
f 2/2/2 1/1/1 7/7/7 8/8/8
f 7/7/7 9/9/9 10/10/10 8/8/8
f 11/11/11 10/10/10 9/9/9 12/12/12
f 13/13/13 11/14/11 12/15/12 14/16/14
f 15/17/15 13/13/13 14/16/14 16/18/16
f 15/17/15 16/18/16 17/19/17 18/20/18
f 19/21/19 20/22/20 18/20/18 17/19/17
f 5/5/5 20/22/20 19/21/19 6/6/6
f 2/2/2 21/23/21 22/24/22 3/3/3
f 23/25/23 5/5/5 3/3/3 22/24/22
f 2/2/2 8/8/8 24/26/24 25/27/25
f 2/2/2 25/27/25 26/28/26 21/23/21
f 8/8/8 10/10/10 27/29/27 24/26/24
f 25/27/25 24/26/24 27/29/27 28/30/28
f 28/30/28 27/29/27 10/10/10 11/11/11
f 29/31/29 30/32/30 11/14/11 13/13/13
f 31/33/31 29/31/29 13/13/13 15/17/15
f 15/17/15 32/34/32 33/35/33 31/33/31
f 15/17/15 18/20/18 34/36/34 32/34/32
f 33/35/33 32/34/32 34/36/34 35/37/35
f 5/5/5 23/25/23 36/38/36 37/39/37
f 20/22/20 5/5/5 37/39/37 38/40/38
f 18/20/18 20/22/20 38/40/38 34/36/34
f 38/40/38 37/39/37 36/38/36 39/41/39
f 34/36/34 38/40/38 39/41/39 35/37/35
f 40/42/40 41/43/41 22/24/22 21/23/21
f 40/42/40 21/23/21 26/28/26 42/44/42
f 40/42/40 43/45/43 44/46/44 41/43/41
f 40/42/40 42/44/42 45/47/45 46/48/46
f 40/42/40 46/48/46 47/49/47 43/45/43
f 23/25/23 22/24/22 41/43/41 48/50/48
f 41/43/41 44/46/44 49/51/49 48/50/48
f 48/50/48 50/52/50 36/38/36 23/25/23
f 48/50/48 51/53/51 52/54/52 50/52/50
f 48/50/48 49/51/49 53/55/53 51/53/51
f 50/52/50 54/56/54 55/57/55 56/58/56
f 50/52/50 56/58/56 39/41/39 36/38/36
f 57/59/57 54/56/54 50/52/50 52/54/52
f 39/41/39 56/58/56 55/57/55 35/37/35
f 54/56/54 33/35/33 35/37/35 55/57/55
f 54/56/54 58/60/58 31/33/31 33/35/33
f 59/61/59 58/60/58 54/56/54 57/59/57
f 58/60/58 60/62/60 29/31/29 31/33/31
f 61/63/61 60/62/60 58/60/58 59/61/59
f 60/62/60 62/64/62 30/32/30 29/31/29
f 61/63/61 63/65/63 62/64/62 60/62/60
f 64/66/64 30/67/30 62/68/62 65/69/65
f 63/70/63 66/71/66 65/69/65 62/68/62
f 42/44/42 26/28/26 64/66/64 65/69/65
f 42/44/42 65/69/65 66/71/66 45/47/45
f 67/72/67 68/73/68 69/74/69 70/75/70
f 71/76/71 72/77/72 68/73/68 67/72/67
f 52/54/52 73/78/73 74/79/74 57/59/57
f 75/80/75 76/81/76 77/82/77 78/83/78
f 77/82/77 76/81/76 79/84/79 80/85/80
f 71/76/71 67/72/67 81/86/81 82/87/82
f 66/71/66 83/88/83 84/89/84 45/47/45
f 67/72/67 70/75/70 85/90/85 81/86/81
f 86/91/86 85/90/85 70/75/70 79/84/79
f 87/92/87 88/93/88 47/49/47 89/94/89
f 43/45/43 47/49/47 88/93/88 90/95/90
f 91/96/91 92/97/92 76/81/76 75/80/75
f 44/46/44 43/45/43 90/95/90 93/98/93
f 93/98/93 94/99/94 49/51/49 44/46/44
f 53/55/53 49/51/49 94/99/94 95/100/95
f 63/65/63 61/63/61 96/101/96 97/102/97
f 98/103/98 51/53/51 53/55/53 99/104/99
f 99/104/99 53/55/53 95/100/95 100/105/100
f 57/59/57 74/79/74 101/106/101 59/61/59
f 80/85/80 79/84/79 70/75/70 69/74/69
f 61/63/61 59/61/59 101/106/101 96/101/96
f 66/71/66 63/70/63 97/107/97 83/88/83
f 46/48/46 45/47/45 84/89/84 102/108/102
f 92/97/92 86/91/86 79/84/79 76/81/76
f 102/108/102 89/94/89 47/49/47 46/48/46
f 91/96/91 75/80/75 103/109/103 104/110/104
f 94/99/94 93/98/93 105/111/105 106/112/106
f 106/112/106 107/113/107 95/100/95 94/99/94
f 90/95/90 108/114/108 105/111/105 93/98/93
f 108/114/108 90/95/90 88/93/88 109/115/109
f 110/116/110 108/114/108 109/115/109 111/117/111
f 112/118/112 113/119/113 107/113/107 106/112/106
f 114/120/114 115/121/115 116/122/116 103/109/103
f 104/110/104 103/109/103 116/122/116 117/123/117
f 113/119/113 100/105/100 95/100/95 107/113/107
f 118/124/118 105/111/105 108/114/108 110/116/110
f 103/109/103 75/80/75 78/83/78 114/120/114
f 111/117/111 109/115/109 88/93/88 87/92/87
f 118/124/118 112/118/112 106/112/106 105/111/105
f 116/125/116 118/124/118 110/116/110 117/126/117
f 73/78/73 69/74/69 68/73/68 74/79/74
f 96/101/96 71/127/71 82/128/82 97/102/97
f 78/83/78 100/105/100 113/119/113 114/120/114
f 80/85/80 98/103/98 99/104/99 77/82/77
f 83/88/83 81/129/81 85/130/85 84/89/84
f 112/118/112 115/131/115 114/120/114 113/119/113
f 87/92/87 91/132/91 104/133/104 111/117/111
f 102/108/102 86/134/86 92/135/92 89/94/89
f 117/126/117 110/116/110 111/117/111 104/133/104
f 74/79/74 68/73/68 72/77/72 101/106/101
f 89/94/89 92/135/92 91/132/91 87/92/87
f 101/106/101 72/77/72 71/127/71 96/101/96
f 69/74/69 73/78/73 98/103/98 80/85/80
f 77/82/77 99/104/99 100/105/100 78/83/78
f 97/107/97 82/136/82 81/129/81 83/88/83
f 84/89/84 85/130/85 86/134/86 102/108/102
f 118/124/118 116/125/116 115/131/115 112/118/112
f 51/53/51 98/103/98 73/78/73 52/54/52
f 28/30/28 64/66/64 26/28/26 25/27/25
f 11/11/11 30/67/30 64/66/64 28/30/28
