# Blender v2.83.0 OBJ File: 'Anime_Male_AExport.blend'
# www.blender.org
o Anime_Male_A_Foot02
v -0.117587 -0.000000 0.186705
v -0.143672 -0.258507 0.139085
v -0.004188 -0.259200 0.206314
v 0.002946 -0.000000 0.230120
v 0.124591 -0.303622 0.143702
v 0.122604 -0.000000 0.166081
v -0.188363 0.000000 0.073518
v -0.203733 -0.200863 0.036396
v -0.190823 0.000000 -0.057908
v -0.197593 -0.192450 -0.084403
v -0.146967 -0.226749 -0.189826
v -0.134426 0.000000 -0.168302
v -0.032705 -0.254284 -0.276155
v -0.033564 -0.000000 -0.230120
v 0.093318 -0.280254 -0.260512
v 0.086745 -0.000000 -0.214116
v 0.177813 -0.000000 -0.114074
v 0.178285 -0.224778 -0.142628
v 0.190823 -0.000000 0.033368
v 0.187570 -0.236306 0.008889
v -0.139673 -0.411945 0.166807
v -0.019989 -0.403524 0.222633
v 0.094088 -0.445702 0.172558
v -0.245593 -0.309569 -0.008389
v -0.229696 -0.366062 0.013189
v -0.208145 -0.440479 0.035280
v -0.232433 -0.302278 -0.088053
v -0.204295 -0.353815 -0.129795
v -0.034208 -0.431388 -0.311517
v -0.134670 -0.431099 -0.251374
v 0.080202 -0.448848 -0.298344
v 0.140882 -0.363999 -0.229484
v 0.145259 -0.458462 -0.234726
v 0.177025 -0.329948 -0.152955
v 0.207132 -0.445071 -0.148044
v 0.161205 -0.475350 0.069329
v 0.159265 -0.397152 0.060683
v 0.187490 -0.345055 -0.023440
v 0.210884 -0.452961 -0.025354
v -0.162055 -0.558185 0.278953
v -0.021486 -0.556157 0.317849
v -0.227591 -0.582473 0.042200
v -0.156955 -0.768209 0.529357
v -0.012863 -0.748403 0.555750
v -0.231512 -0.784517 0.022826
v -0.218508 -0.802432 0.241304
v -0.246960 -0.878030 0.486471
v 0.109037 -0.600934 0.277606
v 0.128701 -0.785283 0.541295
v 0.182708 -0.593476 0.035309
v 0.175967 -0.823928 0.242877
v 0.194580 -0.778521 0.021882
v 0.237856 -0.905840 0.505287
v 0.184128 -0.592698 -0.160726
v 0.210663 -0.528010 -0.116514
v 0.210675 -0.525971 -0.033763
v 0.186684 -0.777838 -0.173555
v 0.107445 -0.592359 -0.302353
v 0.122577 -0.767227 -0.340478
v -0.021780 -0.579743 -0.360781
v -0.001042 -0.755201 -0.403398
v -0.149359 -0.579625 -0.305420
v -0.147893 -0.760428 -0.347452
v -0.191123 -0.451344 -0.151246
v -0.219020 -0.582877 -0.166550
v -0.218958 -0.774163 -0.183691
v -0.001853 -1.096074 -0.196190
v 0.158715 -1.057734 -0.184488
v 0.146448 -1.051215 -0.012523
v -0.004889 -1.090640 -0.018270
v 0.002902 -1.044098 -0.335994
v 0.099219 -1.028385 -0.308081
v 0.177787 -0.948098 0.003877
v 0.196469 -0.943761 -0.185849
v -0.000616 -1.098681 0.731300
v -0.010570 -1.084034 0.476286
v 0.184992 -1.072288 0.483411
v 0.267275 -1.094883 0.731424
v -0.010825 -1.042453 0.196349
v 0.128431 -1.043867 0.205671
v -0.174010 -1.059769 -0.198265
v -0.107116 -1.029413 -0.312142
v -0.216062 -0.949784 -0.201211
v -0.202622 -0.949962 0.002144
v -0.162434 -1.050723 -0.016117
v -0.152305 -1.001749 0.196899
v -0.269440 -1.017873 0.756771
v -0.265587 -0.960080 0.757393
v -0.234847 -0.969494 0.488451
v -0.166710 -0.888814 0.765783
v -0.224136 -1.079492 0.741892
v -0.191415 -1.032932 0.485083
v -0.010039 -0.865603 0.762637
v 0.176791 -0.891786 0.739251
v 0.306083 -0.968937 0.717091
v 0.005547 -0.927961 -0.403232
v -0.134327 -0.927555 -0.352636
v 0.169299 -0.981511 0.217942
v 0.238087 -1.015963 0.495136
v 0.316439 -1.038010 0.720004
v 0.126730 -0.925898 -0.347653
v -0.200653 -0.914976 0.212347
v -0.015350 -1.089743 0.980846
v -0.204079 -1.068971 0.997124
v -0.012896 -0.923760 0.955517
v 0.178268 -0.955309 0.899242
v 0.256375 -0.993504 0.845307
v -0.172447 -0.941465 0.964747
v -0.229159 -0.983794 0.909684
v -0.181936 -0.970547 1.068115
v -0.257581 -1.009060 0.985479
v 0.165533 -0.987993 0.988596
v 0.291873 -1.026920 0.886016
v 0.230511 -1.081345 0.911479
v 0.145595 -1.051591 0.998652
v -0.014401 -1.037762 1.070409
v -0.147430 -1.031133 1.071281
v -0.019904 -0.965710 1.070599
vt 0.700188 0.805685
vt 0.736273 0.798180
vt 0.736810 0.823466
vt 0.699281 0.821380
vt 0.739323 0.847081
vt 0.697995 0.837717
vt 0.699300 0.789359
vt 0.725711 0.781800
vt 0.697100 0.773298
vt 0.720769 0.765548
vt 0.720823 0.749896
vt 0.693655 0.758384
vt 0.703745 0.916481
vt 0.690253 0.927959
vt 0.668320 0.911683
vt 0.676789 0.900329
vt 0.714631 0.904512
vt 0.683952 0.887665
vt 0.689645 0.872571
vt 0.715356 0.884537
vt 0.694134 0.855397
vt 0.723444 0.865538
vt 0.763337 0.797624
vt 0.763365 0.822558
vt 0.764721 0.847552
vt 0.738167 0.771189
vt 0.746803 0.772431
vt 0.758887 0.772174
vt 0.735018 0.762078
vt 0.739558 0.754236
vt 0.722163 0.928990
vt 0.712898 0.939663
vt 0.731702 0.918103
vt 0.727378 0.902951
vt 0.738067 0.908541
vt 0.727825 0.890938
vt 0.742535 0.895738
vt 0.760184 0.868952
vt 0.748628 0.864984
vt 0.736618 0.874785
vt 0.750557 0.881648
vt 0.795859 0.799062
vt 0.797735 0.824331
vt 0.778673 0.763606
vt 0.848479 0.803433
vt 0.849057 0.825586
vt 0.800915 0.745420
vt 0.822442 0.768045
vt 0.855729 0.783483
vt 0.798711 0.850047
vt 0.851108 0.847386
vt 0.773266 0.883290
vt 0.821444 0.882535
vt 0.793294 0.901555
vt 0.859875 0.869035
vt 0.758630 0.906862
vt 0.753773 0.896956
vt 0.759032 0.887242
vt 0.777437 0.920869
vt 0.748492 0.924734
vt 0.765034 0.937339
vt 0.738382 0.938525
vt 0.755655 0.948756
vt 0.727897 0.950808
vt 0.745761 0.962979
vt 0.750090 0.746542
vt 0.741767 0.734418
vt 0.755730 0.721381
vt 0.765526 0.738042
vt 0.772031 0.705991
vt 0.785045 0.723756
vt 0.808149 0.958223
vt 0.800001 0.942820
vt 0.814760 0.930594
vt 0.825465 0.946495
vt 0.792418 0.966331
vt 0.788919 0.954026
vt 0.807767 0.918938
vt 0.791308 0.933976
vt 0.907369 0.896559
vt 0.881022 0.912110
vt 0.870713 0.890583
vt 0.893203 0.873372
vt 0.849146 0.930595
vt 0.839040 0.913479
vt 0.818624 0.976341
vt 0.801529 0.977358
vt 0.801585 0.710124
vt 0.816627 0.729930
vt 0.837221 0.962691
vt 0.859576 0.946856
vt 0.893847 0.788783
vt 0.889712 0.794114
vt 0.863574 0.773908
vt 0.884258 0.807755
vt 0.922654 0.918407
vt 0.893241 0.932095
vt 0.881060 0.826516
vt 0.880751 0.848452
vt 0.884512 0.863019
vt 0.770869 0.957780
vt 0.763050 0.972308
vt 0.834056 0.903758
vt 0.867354 0.881470
vt 0.888419 0.867768
vt 0.778342 0.946751
vt 0.788470 0.694075
vt 0.831315 0.753905
vt 0.932052 0.882084
vt 0.946631 0.899121
vt 0.903781 0.827630
vt 0.898995 0.847661
vt 0.895557 0.857179
vt 0.906535 0.812003
vt 0.904404 0.803195
vt 0.916330 0.812393
vt 0.912217 0.803693
vt 0.909343 0.846825
vt 0.900267 0.860122
vt 0.909171 0.862659
vt 0.923990 0.864415
vt 0.941897 0.875033
vt 0.951205 0.887928
vt 0.916335 0.827240
vt 0.923775 0.829480
vt 0.923696 0.813299
vt 0.783602 0.965086
vt 0.776165 0.976775
vt 0.812697 0.701560
vt 0.825877 0.719629
vt 0.916838 0.849017
vt 0.897660 0.780326
vt 0.921440 0.799829
vt 0.839123 0.743211
vt 0.868706 0.765594
vt 0.801559 0.689241
vn -0.6267 -0.0676 0.7763
vn -0.6838 0.0205 0.7294
vn 0.0290 0.0026 0.9996
vn 0.0342 -0.0981 0.9946
vn 0.7378 -0.0201 0.6748
vn 0.7017 -0.0626 0.7097
vn -0.9557 0.0164 0.2939
vn -0.9533 0.0974 0.2860
vn -0.9720 0.0762 -0.2223
vn -0.9424 0.1710 -0.2874
vn -0.7261 0.1425 -0.6727
vn -0.7447 0.1146 -0.6575
vn -0.2102 0.1874 -0.9595
vn -0.2269 0.1598 -0.9607
vn 0.4999 0.1605 -0.8511
vn 0.4932 0.1465 -0.8575
vn 0.9330 0.0532 -0.3558
vn 0.9300 0.0642 -0.3620
vn 0.9794 -0.0205 0.2010
vn 0.9827 -0.0210 0.1842
vn -0.7073 0.2621 0.6565
vn 0.0347 0.3549 0.9343
vn 0.7220 0.2127 0.6584
vn -0.9906 0.0118 0.1364
vn -0.9703 -0.1163 0.2119
vn -0.9795 0.0784 0.1856
vn -0.9515 0.0436 -0.3044
vn -0.9209 -0.0392 -0.3879
vn -0.1512 0.2453 -0.9576
vn -0.6952 0.2108 -0.6872
vn 0.4930 0.1546 -0.8562
vn 0.7708 0.1208 -0.6255
vn 0.8033 0.0571 -0.5928
vn 0.9336 0.1308 -0.3337
vn 0.9473 0.0798 -0.3103
vn 0.9000 0.0960 0.4251
vn 0.8974 0.0240 0.4405
vn 0.9842 0.0767 0.1596
vn 0.9709 0.1033 0.2160
vn -0.7146 0.4870 0.5022
vn 0.0804 0.6922 0.7172
vn -0.9860 0.1399 0.0910
vn -0.5670 0.7176 0.4044
vn 0.0542 0.8401 0.5397
vn -0.9986 -0.0353 0.0395
vn -0.9965 0.0570 0.0613
vn -0.9748 0.2211 0.0308
vn 0.7509 0.4823 0.4512
vn 0.5717 0.7524 0.3272
vn 0.9771 0.0481 0.2075
vn 0.9883 0.1486 0.0352
vn 0.9970 0.0307 0.0710
vn 0.9325 0.3510 -0.0850
vn 0.9522 -0.0356 -0.3034
vn 0.9677 -0.1645 -0.1913
vn 0.9777 -0.1398 0.1564
vn 0.9794 0.0457 -0.1967
vn 0.6757 0.1586 -0.7199
vn 0.7170 0.1158 -0.6873
vn -0.0213 0.2530 -0.9672
vn 0.0513 0.1286 -0.9904
vn -0.6885 0.2066 -0.6952
vn -0.6743 0.0653 -0.7355
vn -0.9462 0.0945 -0.3095
vn -0.9613 0.1229 -0.2466
vn -0.9730 -0.0084 -0.2307
vn 0.0151 -0.9878 -0.1552
vn 0.6815 -0.7128 -0.1659
vn 0.6419 -0.7621 0.0847
vn -0.0280 -0.9936 0.1098
vn 0.0331 -0.7419 -0.6697
vn 0.5175 -0.6411 -0.5667
vn 0.9785 -0.2009 0.0474
vn 0.9700 -0.1588 -0.1840
vn -0.0493 -0.9984 -0.0283
vn -0.0969 -0.9880 -0.1200
vn 0.4211 -0.8850 -0.1988
vn 0.4611 -0.8867 -0.0331
vn -0.0985 -0.9948 0.0250
vn 0.5131 -0.8566 -0.0538
vn -0.6483 -0.7342 -0.2015
vn -0.4508 -0.6526 -0.6090
vn -0.9468 -0.2204 -0.2346
vn -0.9583 -0.2795 0.0586
vn -0.6287 -0.7681 0.1220
vn -0.6332 -0.7739 0.0078
vn -0.9712 -0.2373 -0.0220
vn -0.8854 0.4523 0.1077
vn -0.9351 -0.3132 -0.1658
vn -0.4320 0.8489 0.3047
vn -0.5149 -0.8549 -0.0639
vn -0.5734 -0.7999 -0.1768
vn 0.0401 0.9222 0.3847
vn 0.4362 0.8476 0.3022
vn 0.8563 0.5133 0.0573
vn 0.0495 -0.2265 -0.9727
vn -0.6237 -0.2078 -0.7535
vn 0.9527 -0.2843 -0.1071
vn 0.9047 -0.3109 -0.2913
vn 0.9726 -0.2246 -0.0609
vn 0.6954 -0.1712 -0.6979
vn -0.9516 -0.3037 -0.0476
vn 0.0135 -0.9590 0.2830
vn -0.4685 -0.7958 0.3837
vn 0.0773 0.9453 0.3169
vn 0.3963 0.8574 0.3284
vn 0.6560 0.6937 0.2972
vn -0.3587 0.9046 0.2301
vn -0.7415 0.6512 0.1615
vn -0.4678 0.4491 0.7612
vn -0.9423 0.0467 0.3316
vn 0.5292 0.4630 0.7110
vn 0.9002 0.0342 0.4341
vn 0.4717 -0.7581 0.4503
vn 0.3943 -0.4956 0.7738
vn 0.1596 -0.4662 0.8702
vn -0.2165 -0.4747 0.8531
vn 0.1626 0.5665 0.8079
s 1
f 1/1/1 2/2/2 3/3/3 4/4/4
f 5/5/5 6/6/6 4/4/4 3/3/3
f 2/2/2 1/1/1 7/7/7 8/8/8
f 7/7/7 9/9/9 10/10/10 8/8/8
f 11/11/11 10/10/10 9/9/9 12/12/12
f 13/13/13 11/14/11 12/15/12 14/16/14
f 15/17/15 13/13/13 14/16/14 16/18/16
f 15/17/15 16/18/16 17/19/17 18/20/18
f 19/21/19 20/22/20 18/20/18 17/19/17
f 5/5/5 20/22/20 19/21/19 6/6/6
f 2/2/2 21/23/21 22/24/22 3/3/3
f 23/25/23 5/5/5 3/3/3 22/24/22
f 2/2/2 8/8/8 24/26/24 25/27/25
f 2/2/2 25/27/25 26/28/26 21/23/21
f 8/8/8 10/10/10 27/29/27 24/26/24
f 25/27/25 24/26/24 27/29/27 28/30/28
f 28/30/28 27/29/27 10/10/10 11/11/11
f 29/31/29 30/32/30 11/14/11 13/13/13
f 31/33/31 29/31/29 13/13/13 15/17/15
f 15/17/15 32/34/32 33/35/33 31/33/31
f 15/17/15 18/20/18 34/36/34 32/34/32
f 33/35/33 32/34/32 34/36/34 35/37/35
f 5/5/5 23/25/23 36/38/36 37/39/37
f 20/22/20 5/5/5 37/39/37 38/40/38
f 18/20/18 20/22/20 38/40/38 34/36/34
f 38/40/38 37/39/37 36/38/36 39/41/39
f 34/36/34 38/40/38 39/41/39 35/37/35
f 40/42/40 41/43/41 22/24/22 21/23/21
f 40/42/40 21/23/21 26/28/26 42/44/42
f 40/42/40 43/45/43 44/46/44 41/43/41
f 40/42/40 42/44/42 45/47/45 46/48/46
f 40/42/40 46/48/46 47/49/47 43/45/43
f 23/25/23 22/24/22 41/43/41 48/50/48
f 41/43/41 44/46/44 49/51/49 48/50/48
f 48/50/48 50/52/50 36/38/36 23/25/23
f 48/50/48 51/53/51 52/54/52 50/52/50
f 48/50/48 49/51/49 53/55/53 51/53/51
f 50/52/50 54/56/54 55/57/55 56/58/56
f 50/52/50 56/58/56 39/41/39 36/38/36
f 57/59/57 54/56/54 50/52/50 52/54/52
f 39/41/39 56/58/56 55/57/55 35/37/35
f 54/56/54 33/35/33 35/37/35 55/57/55
f 54/56/54 58/60/58 31/33/31 33/35/33
f 59/61/59 58/60/58 54/56/54 57/59/57
f 58/60/58 60/62/60 29/31/29 31/33/31
f 61/63/61 60/62/60 58/60/58 59/61/59
f 60/62/60 62/64/62 30/32/30 29/31/29
f 61/63/61 63/65/63 62/64/62 60/62/60
f 64/66/64 30/67/30 62/68/62 65/69/65
f 63/70/63 66/71/66 65/69/65 62/68/62
f 42/44/42 26/28/26 64/66/64 65/69/65
f 42/44/42 65/69/65 66/71/66 45/47/45
f 67/72/67 68/73/68 69/74/69 70/75/70
f 71/76/71 72/77/72 68/73/68 67/72/67
f 52/54/52 73/78/73 74/79/74 57/59/57
f 75/80/75 76/81/76 77/82/77 78/83/78
f 77/82/77 76/81/76 79/84/79 80/85/80
f 71/76/71 67/72/67 81/86/81 82/87/82
f 66/71/66 83/88/83 84/89/84 45/47/45
f 67/72/67 70/75/70 85/90/85 81/86/81
f 86/91/86 85/90/85 70/75/70 79/84/79
f 87/92/87 88/93/88 47/49/47 89/94/89
f 43/45/43 47/49/47 88/93/88 90/95/90
f 91/96/91 92/97/92 76/81/76 75/80/75
f 44/46/44 43/45/43 90/95/90 93/98/93
f 93/98/93 94/99/94 49/51/49 44/46/44
f 53/55/53 49/51/49 94/99/94 95/100/95
f 63/65/63 61/63/61 96/101/96 97/102/97
f 98/103/98 51/53/51 53/55/53 99/104/99
f 99/104/99 53/55/53 95/100/95 100/105/100
f 57/59/57 74/79/74 101/106/101 59/61/59
f 80/85/80 79/84/79 70/75/70 69/74/69
f 61/63/61 59/61/59 101/106/101 96/101/96
f 66/71/66 63/70/63 97/107/97 83/88/83
f 46/48/46 45/47/45 84/89/84 102/108/102
f 92/97/92 86/91/86 79/84/79 76/81/76
f 102/108/102 89/94/89 47/49/47 46/48/46
f 91/96/91 75/80/75 103/109/103 104/110/104
f 94/99/94 93/98/93 105/111/105 106/112/106
f 106/112/106 107/113/107 95/100/95 94/99/94
f 90/95/90 108/114/108 105/111/105 93/98/93
f 108/114/108 90/95/90 88/93/88 109/115/109
f 110/116/110 108/114/108 109/115/109 111/117/111
f 112/118/112 113/119/113 107/113/107 106/112/106
f 114/120/114 115/121/115 116/122/116 103/109/103
f 104/110/104 103/109/103 116/122/116 117/123/117
f 113/119/113 100/105/100 95/100/95 107/113/107
f 118/124/118 105/111/105 108/114/108 110/116/110
f 103/109/103 75/80/75 78/83/78 114/120/114
f 111/117/111 109/115/109 88/93/88 87/92/87
f 118/124/118 112/118/112 106/112/106 105/111/105
f 116/125/116 118/124/118 110/116/110 117/126/117
f 73/78/73 69/74/69 68/73/68 74/79/74
f 96/101/96 71/127/71 82/128/82 97/102/97
f 78/83/78 100/105/100 113/119/113 114/120/114
f 80/85/80 98/103/98 99/104/99 77/82/77
f 83/88/83 81/129/81 85/130/85 84/89/84
f 112/118/112 115/131/115 114/120/114 113/119/113
f 87/92/87 91/132/91 104/133/104 111/117/111
f 102/108/102 86/134/86 92/135/92 89/94/89
f 117/126/117 110/116/110 111/117/111 104/133/104
f 74/79/74 68/73/68 72/77/72 101/106/101
f 89/94/89 92/135/92 91/132/91 87/92/87
f 101/106/101 72/77/72 71/127/71 96/101/96
f 69/74/69 73/78/73 98/103/98 80/85/80
f 77/82/77 99/104/99 100/105/100 78/83/78
f 97/107/97 82/136/82 81/129/81 83/88/83
f 84/89/84 85/130/85 86/134/86 102/108/102
f 118/124/118 116/125/116 115/131/115 112/118/112
f 51/53/51 98/103/98 73/78/73 52/54/52
f 28/30/28 64/66/64 26/28/26 25/27/25
f 11/11/11 30/67/30 64/66/64 28/30/28
